<svg width="120" height="120" viewBox="0 0 120 120" fill="none" xmlns="http://www.w3.org/2000/svg">
<path fill-rule="evenodd" clip-rule="evenodd" d="M12.8568 17.1429V102.857H106.585V17.1429H12.8568ZM104.438 19.2891V28.1609H15.0027V19.2891H104.438ZM15.0027 100.854V30.3078H104.438V100.854H15.0027ZM89.1274 22.7233H91.2737V24.8696H89.1274V22.7233ZM96.7099 22.7233H94.5637V24.8696H96.7099V22.7233ZM83.6899 22.7233H85.8362V24.8696H83.6899V22.7233ZM76.9632 22.7233H21.8716V24.8696H76.9632V22.7233ZM78.825 79.5328L76.1065 75.5264C76.9649 73.9524 77.6805 72.2351 78.1099 70.5184L82.832 69.66V62.0762L78.1099 61.2178C77.6804 59.5004 76.9654 57.7836 75.9637 56.2097L78.6828 52.2027L73.2446 46.7638L69.2375 49.4829C67.6635 48.6246 65.9462 47.9089 64.2295 47.4795L63.3711 42.7575H55.7873L54.9289 47.4795C53.2115 47.909 51.4948 48.624 49.9209 49.6258L45.9138 46.9067L40.4763 52.3442L43.1954 56.3513C42.337 57.9253 41.6214 59.6426 41.192 61.3593L36.4686 62.2183V69.8022L41.1906 70.6605C41.6201 72.3779 42.3351 74.0947 43.3369 75.6686L40.6178 79.6756L46.056 85.1138L50.063 82.3947C51.637 83.3965 53.3543 83.9687 55.0711 84.3981L55.9295 89.1202H63.5133L64.3717 84.3981C66.0891 83.9686 67.8058 83.2537 69.3797 82.2519L73.3867 84.971L78.825 79.5328ZM69.5237 79.6762L68.9515 80.1057C67.2341 81.2501 65.374 81.9657 63.3704 82.3953L62.6548 82.5387L61.7964 86.9738H57.7894L56.931 82.538L56.2154 82.3946C54.212 81.9651 52.3517 81.2501 50.6343 80.105L50.0621 79.6755L46.3419 82.2519L43.4801 79.3901L46.0559 75.67L45.4837 75.0971C44.3392 73.3797 43.6236 71.5196 43.194 69.516L43.0507 68.8004L38.6148 68.0848V64.0777L43.0507 63.2194L43.194 62.5037C43.6235 60.5003 44.3385 58.6401 45.4837 56.9227L45.9131 56.3504L43.194 52.4881L46.0558 49.6263L49.776 52.2021L50.3482 51.7726C52.0656 50.6281 53.9257 49.9125 55.9293 49.483L56.6449 49.3396L57.3606 44.9037H61.3676L62.226 49.3396L62.9416 49.483C64.945 49.9125 66.8053 50.6274 68.5227 51.7726L69.0949 52.2021L72.8151 49.6263L75.6769 52.4881L73.1011 56.2082L73.5306 56.7805C74.6751 58.4979 75.3907 60.358 75.8202 62.3616L75.9636 63.0772L80.3994 63.7928V67.7998L75.9636 68.6582L76.1063 69.3732C75.6768 71.3766 74.9618 73.2369 73.8167 74.9543L73.3872 75.5265L75.963 79.2467L73.1012 82.1085L69.5237 79.6762ZM49.4894 65.9383C49.4894 60.2145 54.068 55.6353 59.649 55.6353C65.2301 55.6353 69.8087 60.2145 69.8087 65.795C69.8087 71.5187 65.2301 76.0979 59.649 76.0979C54.0686 76.0979 49.4894 71.5194 49.4894 65.9383ZM51.4924 65.9388C51.4924 70.3747 55.2132 73.9521 59.649 73.9521C64.0849 73.9521 67.8058 70.2313 67.5191 65.7954C67.5191 61.3596 63.9416 57.7821 59.5057 57.7821C55.0698 57.7821 51.4924 61.5029 51.4924 65.9388ZM29.3144 39.466H46.7725V37.3197H27.1685V52.0586H29.3154L29.3144 39.466ZM27.1678 79.6757H29.3147L29.3137 92.4111H46.7718V94.5574H27.1678V79.6757ZM89.9853 92.4117H72.5272V94.5579H92.1312V79.6763H89.9843L89.9853 92.4117ZM89.9866 39.466H72.5285L72.5295 37.3197H92.1335V52.0586H89.9866V39.466Z" fill="url(#paint0_linear_4_203)"/>
<defs>
<linearGradient id="paint0_linear_4_203" x1="18.9792" y1="26.3266" x2="99.1833" y2="102.857" gradientUnits="userSpaceOnUse">
<stop stop-color="#2BBCA5"/>
<stop offset="1" stop-color="#2BBCA5"/>
</linearGradient>
</defs>
</svg>
