<svg width="120" height="120" viewBox="0 0 120 120" fill="none" xmlns="http://www.w3.org/2000/svg">
<path fill-rule="evenodd" clip-rule="evenodd" d="M108.999 86.2617H105.448L105.448 111.557H11.9149V42.2536H17.9417C15.9696 38.8442 14.9211 35.0051 14.9211 31.0006C14.9211 18.5618 25.0404 8.4425 37.4792 8.4425C41.5642 8.4425 45.529 9.54976 49.0122 11.6268C52.3838 9.61778 56.3069 8.4425 60.5084 8.4425C72.9463 8.4425 83.0665 18.5618 83.0665 31.0006C83.0665 35.0042 82.0189 38.8423 80.046 42.2536H105.448L105.449 65.4931H109L108.999 86.2617ZM79.1508 83.5488H106.287L106.287 68.207H79.1479L75.0903 75.8471L79.1508 83.5488ZM76.8403 42.2516C79.1331 38.9341 80.3548 35.0618 80.3548 30.9986C80.3548 20.056 71.4523 11.1535 60.5106 11.1535C49.5679 11.1535 40.6654 20.056 40.6654 30.9986C40.6654 35.0608 41.888 38.9331 44.1808 42.2516H49.0323C46.1111 39.2662 44.4069 35.2428 44.4069 30.9986C44.4069 22.1189 51.6306 14.8942 60.5106 14.8942C69.3905 14.8942 76.6143 22.1189 76.6143 30.9986C76.6143 35.2425 74.9101 39.2662 71.9889 42.2516H76.8403ZM65.2636 36.8041L66.1285 35.0308L68.5766 35.0309L67.1732 37.8867C66.4712 39.3232 65.5277 39.9856 63.8821 39.9856H62.2479V42.2528H70.0102C73.3079 39.4634 75.2581 35.3547 75.2581 30.9998C75.2581 22.8684 68.642 16.2522 60.5105 16.2522C52.3791 16.2522 45.7629 22.8677 45.7629 30.9998C45.7629 35.3544 47.7132 39.4631 51.0109 42.2528H59.9815V39.9856H58.3472C56.7017 39.9856 55.7582 39.3232 55.0561 37.8867L53.0368 33.7761C52.664 33.0248 52.4444 32.3179 52.4444 31.4558C52.4444 30.4831 52.6195 29.8869 53.0586 29.0031L55.0779 24.9152C55.8245 23.3898 56.7679 22.7937 58.4579 22.7937H59.9824V19.7685H62.2478V22.7937H63.7722C65.4622 22.7937 66.4066 23.3898 67.1522 24.9152L68.4448 27.5317H66.0158L65.221 25.9316C64.815 25.114 64.6523 25.0099 63.7723 25.0052V25.0099H58.4572V25.0052C57.5762 25.0099 57.4144 25.114 57.0084 25.9316L55.0988 29.7762C54.8131 30.3733 54.638 30.7708 54.638 31.4559C54.638 32.0527 54.822 32.4234 55.0711 32.9252L55.0988 32.9812L56.9639 36.8041C57.3775 37.6576 57.6046 37.7646 58.4562 37.774V37.7703H63.7713V37.774C64.623 37.7646 64.8491 37.6576 65.2636 36.8041ZM22.7298 30.9996C22.7298 35.3542 24.6811 39.4619 27.9798 42.2526L35.8121 42.2528V39.9855H34.1779C32.5323 39.9855 31.5889 39.3231 30.8867 37.8867L28.8674 33.776C28.4946 33.0247 28.275 32.3178 28.275 31.4558C28.275 30.483 28.4501 29.8868 28.8892 29.003L30.9085 24.9151C31.6551 23.3898 32.5985 22.7936 34.2886 22.7936L34.3217 22.7946H35.813V19.7694H38.0784V22.7946H39.5176C40.3096 20.7742 41.3846 18.8987 42.6952 17.2096C41.0365 16.5794 39.2896 16.252 37.4784 16.252C29.346 16.252 22.7298 22.8675 22.7298 30.9996ZM38.7824 25.0096H34.3217L34.2896 25.0088V25.0041C33.4086 25.0088 33.2468 25.1129 32.8409 25.9305L30.9313 29.7751C30.6455 30.3722 30.4705 30.7697 30.4705 31.4547C30.4705 32.0516 30.6544 32.4223 30.9035 32.9241L30.9313 32.9801L32.7964 36.803C33.2099 37.6565 33.437 37.7635 34.2887 37.7729V37.7691H38.9897C38.3093 35.6013 37.9497 33.3284 37.9497 30.9986C37.9497 28.9224 38.2544 26.9201 38.7824 25.0096ZM39.7127 39.9852H38.0785L38.0776 42.2515H40.9703C40.5416 41.5106 40.1498 40.7536 39.8111 39.9738C39.7961 39.9747 39.7824 39.977 39.7686 39.9793L39.7686 39.9793C39.751 39.9822 39.7333 39.9852 39.7127 39.9852ZM37.4787 11.1532C26.536 11.1532 17.6335 20.0557 17.6335 30.9984L17.6337 30.9982C17.6337 35.0633 18.8564 38.9344 21.1492 42.2502H26.0006C23.0784 39.2648 21.3733 35.2404 21.3733 30.9972C21.3733 22.1175 28.5989 14.8928 37.4787 14.8928C39.6107 14.8928 41.6583 15.3215 43.5944 16.1211C44.4849 15.1105 45.4576 14.1765 46.5137 13.3382C43.7288 11.9112 40.6458 11.1532 37.4787 11.1532ZM14.6282 104.644V108.844L102.732 108.842V86.2585H98.5847V87.6136C98.5847 87.9883 98.2809 88.2921 97.9062 88.2921C97.5315 88.2921 97.2277 87.9883 97.2277 87.6136V86.2585H77.5095L72.0183 75.84L77.5124 65.4906H97.228V64.1337C97.228 63.7589 97.5317 63.4552 97.9065 63.4552C98.2812 63.4552 98.5849 63.7589 98.5849 64.1337V65.4906H102.732V44.9642H77.5559C77.555 44.9642 77.554 44.9652 77.5531 44.9652C77.5521 44.9652 77.5502 44.9642 77.5493 44.9642H14.6286V49.1619H17.1448C17.5196 49.1619 17.8233 49.4656 17.8233 49.8403C17.8233 50.2151 17.5196 50.5188 17.1448 50.5188H14.6286V62.5288L30.3111 62.5298L32.285 57.1805H43.185C43.4472 55.7678 44.119 54.4165 45.2091 53.3264C46.601 51.9345 48.452 51.168 50.4193 51.168C52.3875 51.168 54.2385 51.9345 55.6295 53.3264C57.0215 54.7184 57.7889 56.5684 57.7889 58.5366C57.7889 60.5049 57.0215 62.3549 55.6295 63.7468C54.2385 65.1388 52.3875 65.9053 50.4193 65.9053C48.452 65.9053 46.6011 65.1388 45.2091 63.7478C44.119 62.6577 43.4471 61.3064 43.185 59.8937H34.1764L32.2025 65.2429H14.6284V79.0557H30.3099L32.2838 73.7065H43.2095C43.4877 72.3382 44.1501 71.0333 45.209 69.9744C46.6009 68.5825 48.4519 67.816 50.4192 67.816C52.3874 67.816 54.2383 68.5825 55.6294 69.9744C57.0213 71.3664 57.7887 73.2164 57.7887 75.1846C57.7887 77.1539 57.0213 79.0039 55.6294 80.3958C54.2384 81.7868 52.3874 82.5543 50.4192 82.5543C48.4519 82.5543 46.6009 81.7878 45.209 80.3958C44.0876 79.2745 43.4186 77.8769 43.1726 76.4206L34.1764 76.4196L32.2024 81.7689H14.6283V95.5824H30.3098L32.2837 90.2332H43.2453C43.5386 88.9113 44.1821 87.6509 45.2088 86.6242C46.6007 85.2322 48.4517 84.4658 50.419 84.4658C52.3872 84.4658 54.2382 85.2322 55.6292 86.6242C57.0212 88.0152 57.7886 89.8662 57.7886 91.8344C57.7886 93.8026 57.0212 95.6526 55.6292 97.0446C54.2382 98.4356 52.3872 99.2031 50.419 99.2031C48.4517 99.2031 46.6007 98.4366 45.2088 97.0446C44.0562 95.892 43.3882 94.4471 43.1601 92.9473H34.1762L32.2023 98.2965H14.6282V103.287H17.1444C17.5191 103.287 17.8229 103.591 17.8229 103.966C17.8229 104.34 17.5191 104.644 17.1444 104.644H14.6282ZM50.4199 87.1798C49.1774 87.1798 48.0078 87.6643 47.1278 88.5434C45.3128 90.3583 45.3128 93.3117 47.1278 95.1266C48.8889 96.8848 51.9538 96.8848 53.712 95.1266C54.592 94.2475 55.0765 93.0789 55.0765 91.8355C55.0765 90.5921 54.592 89.4234 53.712 88.5443C52.8319 87.6643 51.6642 87.1798 50.4199 87.1798ZM50.4199 70.5311C49.1774 70.5311 48.0078 71.0146 47.1278 71.8946C45.3128 73.7095 45.3128 76.663 47.1278 78.4789C48.8889 80.237 51.9538 80.237 53.712 78.4789C54.592 77.5988 55.0765 76.4311 55.0765 75.1868C55.0765 73.9433 54.592 72.7747 53.712 71.8946C52.8319 71.0156 51.6642 70.5311 50.4199 70.5311ZM50.4199 53.8823C49.1774 53.8823 48.0078 54.3659 47.1278 55.2459C45.3128 57.0601 45.3128 60.0142 47.1278 61.8301C48.8889 63.5892 51.9538 63.5864 53.712 61.8301C54.592 60.95 55.0765 59.7814 55.0765 58.538C55.0765 57.2946 54.592 56.1259 53.712 55.2459C52.8319 54.3668 51.6642 53.8823 50.4199 53.8823ZM91.5083 79.6609C90.4976 80.6715 89.1549 81.228 87.7251 81.228C86.2963 81.228 84.9526 80.6725 83.941 79.6609C82.9304 78.6503 82.374 77.3076 82.374 75.8778C82.374 74.449 82.9304 73.1053 83.941 72.0946C85.963 70.0734 89.487 70.0734 91.5083 72.0946C92.5198 73.1053 93.0772 74.448 93.0772 75.8778C93.0772 77.3066 92.5189 78.6503 91.5083 79.6609ZM87.7251 71.8836C86.6568 71.8836 85.6547 72.299 84.9006 73.0532C84.1454 73.8073 83.731 74.8104 83.731 75.8777C83.731 76.9451 84.1454 77.9481 84.9006 78.7023C86.4088 80.2116 89.0423 80.2116 90.5497 78.7023C91.3048 77.9472 91.7212 76.9451 91.7212 75.8777C91.7212 74.8104 91.3048 73.8073 90.5497 73.0532C89.7956 72.299 88.7925 71.8836 87.7251 71.8836ZM97.909 91.4847C97.5343 91.4847 97.2306 91.7884 97.2306 92.1632V96.7091C97.2306 97.0839 97.5343 97.3876 97.909 97.3876C98.2838 97.3876 98.5875 97.0839 98.5875 96.7091V92.1632C98.5875 91.7884 98.2838 91.4847 97.909 91.4847ZM97.2307 101.255C97.2307 100.88 97.5345 100.576 97.9092 100.576L97.9092 100.576C98.2839 100.576 98.5877 100.879 98.5877 101.255V103.968C98.5877 104.342 98.2839 104.646 97.9092 104.646H95.1963C94.8215 104.646 94.5178 104.342 94.5178 103.968C94.5178 103.593 94.8215 103.289 95.1963 103.289H97.2307V101.255ZM27.5516 103.289H22.3489C21.9742 103.289 21.6704 103.593 21.6704 103.968C21.6704 104.342 21.9742 104.646 22.3489 104.646H27.5516C27.9263 104.646 28.2301 104.342 28.2301 103.968C28.2301 103.593 27.9273 103.289 27.5516 103.289ZM32.7577 103.289H37.9611C38.3359 103.289 38.6396 103.593 38.6396 103.968C38.6396 104.342 38.3359 104.646 37.9611 104.646H32.7577C32.383 104.646 32.0792 104.342 32.0792 103.968C32.0792 103.593 32.383 103.289 32.7577 103.289ZM48.3655 103.289H43.1628C42.7881 103.289 42.4843 103.593 42.4843 103.968C42.4843 104.342 42.7881 104.646 43.1628 104.646H48.3655C48.7402 104.646 49.044 104.342 49.044 103.968C49.044 103.593 48.7402 103.289 48.3655 103.289ZM84.7891 103.289H89.9925C90.3672 103.289 90.67 103.593 90.671 103.968C90.671 104.342 90.3672 104.646 89.9925 104.646H84.7891C84.4143 104.646 84.1106 104.342 84.1106 103.968C84.1106 103.593 84.4143 103.289 84.7891 103.289ZM58.7719 103.289H53.5684C53.1937 103.289 52.89 103.593 52.89 103.968C52.89 104.342 53.1937 104.646 53.5684 104.646H58.7719C59.1466 104.646 59.4503 104.342 59.4503 103.968C59.4503 103.593 59.1466 103.289 58.7719 103.289ZM63.9757 103.289H69.1791C69.5538 103.289 69.8576 103.593 69.8576 103.968C69.8576 104.342 69.5538 104.646 69.1791 104.646H63.9757C63.6009 104.646 63.2972 104.342 63.2972 103.968C63.2972 103.593 63.6009 103.289 63.9757 103.289ZM79.5884 103.289H74.385C74.0103 103.289 73.7066 103.593 73.7066 103.968C73.7066 104.342 74.0103 104.646 74.385 104.646H79.5884C79.9632 104.646 80.2669 104.342 80.2669 103.968C80.266 103.593 79.9632 103.289 79.5884 103.289ZM58.7719 49.1666C59.1466 49.1666 59.4503 49.4704 59.4503 49.8451C59.4503 50.2198 59.1466 50.5236 58.7719 50.5236H53.5684C53.1937 50.5236 52.89 50.2198 52.89 49.8451C52.89 49.4704 53.1937 49.1666 53.5684 49.1666H58.7719ZM37.9579 49.1644H32.7545C32.3798 49.1644 32.076 49.4681 32.076 49.8428C32.076 50.2176 32.3798 50.5213 32.7545 50.5213H37.9579C38.3327 50.5213 38.6364 50.2176 38.6364 49.8428C38.6364 49.4681 38.3336 49.1644 37.9579 49.1644ZM22.3478 49.1644H27.5512C27.9269 49.1644 28.2297 49.4681 28.2297 49.8428C28.2297 50.2176 27.926 50.5213 27.5512 50.5213H22.3478C21.9731 50.5213 21.6693 50.2176 21.6693 49.8428C21.6693 49.4681 21.9731 49.1644 22.3478 49.1644ZM74.3824 50.5233H79.5858C79.9605 50.5233 80.2643 50.2196 80.2643 49.8448C80.2643 49.4701 79.9605 49.1664 79.5858 49.1664H74.3824C74.0076 49.1664 73.7039 49.4701 73.7039 49.8448C73.7039 50.2196 74.0076 50.5233 74.3824 50.5233ZM69.1784 50.5233H63.9757C63.6009 50.5233 63.2972 50.2196 63.2972 49.8448C63.2972 49.4701 63.6009 49.1664 63.9757 49.1664H69.1784C69.5531 49.1664 69.8568 49.4701 69.8568 49.8448C69.8568 50.2196 69.5531 50.5233 69.1784 50.5233ZM84.7891 50.5233H89.9917C90.3665 50.5233 90.6702 50.2196 90.6702 49.8448C90.6702 49.4701 90.3665 49.1664 89.9917 49.1664H84.7891C84.4143 49.1664 84.1106 49.4701 84.1106 49.8448C84.1115 50.2196 84.4143 50.5233 84.7891 50.5233ZM43.1617 49.1644H48.3652C48.7399 49.1644 49.0436 49.4681 49.0436 49.8428C49.0436 50.2176 48.7399 50.5213 48.3652 50.5213H43.1617C42.787 50.5213 42.4833 50.2176 42.4833 49.8428C42.4833 49.4681 42.787 49.1644 43.1617 49.1644ZM95.1962 50.5234H97.2307V52.5579C97.2307 52.9326 97.5345 53.2364 97.9092 53.2364C98.2839 53.2364 98.5877 52.9326 98.5877 52.5579V49.845C98.5877 49.4703 98.2839 49.1665 97.9092 49.1665H95.1963C94.8216 49.1665 94.5178 49.4703 94.5178 49.845C94.5178 50.2197 94.8216 50.5235 95.1963 50.5235L95.1962 50.5234ZM97.2306 56.4174C97.2306 56.0427 97.5343 55.7389 97.909 55.7389C98.2838 55.7389 98.5875 56.0417 98.5875 56.4174V60.2773C98.5875 60.652 98.2838 60.9558 97.909 60.9558C97.5343 60.9558 97.2306 60.652 97.2306 60.2773V56.4174Z" fill="url(#paint0_linear_4_334)"/>
<defs>
<linearGradient id="paint0_linear_4_334" x1="11.9149" y1="11.9578" x2="102.14" y2="111.557" gradientUnits="userSpaceOnUse">
<stop stop-color="#C743F7"/>
<stop offset="1" stop-color="#C743F7"/>
</linearGradient>
</defs>
</svg>
