<svg width="120" height="120" viewBox="0 0 120 120" fill="none" xmlns="http://www.w3.org/2000/svg">
<path fill-rule="evenodd" clip-rule="evenodd" d="M13.3659 85.9971H50.9703V94.1849H43.8582C37.3672 94.1849 32.0858 99.4656 32.0858 105.957C32.0858 106.612 32.6169 107.143 33.2715 107.143H86.0721H86.0735C86.7282 107.143 87.2592 106.613 87.2592 105.957C87.2592 99.4663 81.9785 94.1849 75.4869 94.1849H68.371V85.9971H105.976H105.976C109.211 85.9971 111.842 83.3656 111.842 80.1312V71.0206C111.842 71.0038 111.843 70.987 111.843 70.97C111.843 70.9531 111.842 70.9362 111.842 70.9194V18.7231C111.842 15.4886 109.21 12.8572 105.976 12.8572H13.3659C10.1315 12.8572 7.5 15.4886 7.5 18.7231V80.1312C7.5 83.3656 10.1315 85.9971 13.3659 85.9971ZM65.9996 94.1849H53.3417V85.9971H65.9996V94.1849ZM67.2346 83.626H105.976C107.902 83.626 109.47 82.0583 109.47 80.1316L109.47 72.1557H9.87151V80.1316C9.87151 82.0584 11.4392 83.626 13.3659 83.626H52.1067L52.1136 83.6257L52.1368 83.6251L52.156 83.625C52.1725 83.625 52.1889 83.6253 52.2053 83.626H67.136C67.1523 83.6253 67.1688 83.625 67.1853 83.625C67.2018 83.625 67.2182 83.6253 67.2346 83.626ZM109.47 69.7843L109.471 18.7235C109.471 16.7967 107.903 15.2291 105.976 15.2291H13.3659C11.4391 15.2291 9.87151 16.7968 9.87151 18.7235V69.7843H109.47ZM34.5312 104.771H84.8125C84.2281 100.146 80.2678 96.5562 75.486 96.5562H43.8572C39.0746 96.5562 35.1153 100.146 34.5308 104.771H34.5312ZM35.4552 40.8701C35.5577 40.8972 35.661 40.9107 35.7626 40.9107C36.286 40.9107 36.7654 40.5609 36.9077 40.0316L41.6548 22.3164C41.8242 21.6838 41.449 21.0333 40.8163 20.8639C40.1837 20.6946 39.5333 21.0697 39.3639 21.7024L34.6167 39.4176C34.4474 40.0502 34.8225 40.7007 35.4552 40.8701ZM98.2971 23.1949H64.1112C63.4565 23.1949 62.9255 22.6639 62.9255 22.0092C62.9255 21.3545 63.4565 20.8235 64.1112 20.8235H98.2962C98.9509 20.8235 99.4819 21.3545 99.4819 22.0092C99.4819 22.6638 98.9517 23.1949 98.2971 23.1949ZM64.1112 31.3947H98.2971C98.9517 31.3947 99.4819 30.8637 99.4819 30.209C99.4819 29.5543 98.9509 29.0233 98.2962 29.0233H64.1112C63.4565 29.0233 62.9255 29.5543 62.9255 30.209C62.9255 30.8637 63.4565 31.3947 64.1112 31.3947ZM82.833 64.19H79.5799C78.9252 64.19 78.3942 63.659 78.3942 63.0043V61.169C77.3491 60.9014 76.3404 60.4838 75.4113 59.9325L74.1129 61.2309C73.6505 61.6941 72.8993 61.6941 72.436 61.2309L70.1358 58.9315C69.9131 58.7088 69.7886 58.4073 69.7886 58.0931C69.7886 57.778 69.9131 57.4774 70.1358 57.2546L71.4342 55.9563C70.8828 55.0272 70.4653 54.0185 70.1977 52.9734H68.3624C67.7077 52.9734 67.1767 52.4423 67.1767 51.7876V48.5346C67.1767 47.8799 67.7077 47.3489 68.3624 47.3489H70.1977C70.4653 46.3038 70.8829 45.2951 71.4342 44.3659L70.1358 43.0676C69.9131 42.8449 69.7886 42.5433 69.7886 42.2291C69.7886 41.9141 69.9131 41.6134 70.1358 41.3907L72.436 39.0905C72.8984 38.6272 73.6497 38.6272 74.1129 39.0905L75.4113 40.3888C76.3412 39.8375 77.3491 39.42 78.3942 39.1523V37.3171C78.3942 36.6624 78.9252 36.1313 79.5799 36.1313H82.833C83.4877 36.1313 84.0187 36.6624 84.0187 37.3171V39.1523C85.0638 39.42 86.0725 39.8375 87.0016 40.3888L88.3 39.0905C88.7624 38.6272 89.5136 38.6272 89.9769 39.0905L92.2771 41.3907C92.4998 41.6134 92.6243 41.9149 92.6243 42.2291C92.6243 42.5442 92.4998 42.8448 92.2771 43.0676L90.9787 44.3659C91.5292 45.295 91.9476 46.3037 92.2152 47.3489H94.0505C94.7052 47.3489 95.2362 47.8799 95.2362 48.5346V51.7876C95.2362 52.4423 94.7052 52.9734 94.0505 52.9734H92.2152C91.9476 54.0185 91.5301 55.0272 90.9787 55.9563L92.2771 57.2546C92.4998 57.4774 92.6243 57.7789 92.6243 58.0931C92.6243 58.4081 92.4998 58.7088 92.2771 58.9315L89.9769 61.2309C89.5145 61.6941 88.7632 61.6941 88.3 61.2309L87.0016 59.9325C86.0717 60.483 85.0639 60.9014 84.0187 61.169V63.0043C84.0187 63.6598 83.4877 64.19 82.833 64.19ZM80.7656 61.8185H81.6473V60.2051C81.6473 59.6233 82.0699 59.127 82.645 59.0347C84.0153 58.8145 85.3365 58.2673 86.4646 57.4517C86.9372 57.1113 87.5859 57.163 87.9975 57.5746L89.1392 58.7154L89.7625 58.092L88.6217 56.9512C88.2101 56.5396 88.1584 55.89 88.4989 55.4183C89.3145 54.2902 89.8616 52.9689 90.0818 51.5987C90.1741 51.0236 90.6704 50.601 91.2523 50.601H92.8656V49.7193H91.2523C90.6704 49.7193 90.1741 49.2967 90.0818 48.7216C89.8616 47.3513 89.3145 46.0301 88.4989 44.902C88.1576 44.4303 88.2101 43.7807 88.6217 43.3691L89.7625 42.2283L89.1392 41.605L87.9975 42.7458C87.5859 43.1574 86.9372 43.209 86.4646 42.8686C85.3356 42.053 84.0152 41.5059 82.645 41.2857C82.0699 41.1933 81.6473 40.6971 81.6473 40.1152V38.5018H80.7656V40.1152C80.7656 40.6979 80.343 41.1934 79.7679 41.2857C78.3976 41.5059 77.0764 42.053 75.9483 42.8686C75.4766 43.2099 74.827 43.1574 74.4154 42.7458L73.2737 41.605L72.6504 42.2283L73.7912 43.3691C74.2028 43.7807 74.2545 44.4303 73.914 44.902C73.0984 46.0301 72.5513 47.3514 72.3311 48.7216C72.2388 49.2967 71.7425 49.7193 71.1607 49.7193H69.5473V50.601H71.1607C71.7425 50.601 72.2388 51.0236 72.3311 51.5987C72.5513 52.969 73.0984 54.2902 73.914 55.4183C74.2553 55.89 74.2028 56.5396 73.7912 56.9512L72.6504 58.092L73.2737 58.7154L74.4154 57.5746C74.8261 57.163 75.4757 57.1104 75.9483 57.4517C77.0764 58.2673 78.3977 58.8145 79.7679 59.0347C80.343 59.127 80.7656 59.6233 80.7656 60.2051V61.8185ZM81.2069 57.1197C77.3687 57.1197 74.2461 53.9972 74.2461 50.1589C74.2461 46.3207 77.3687 43.1981 81.2069 43.1981C85.0452 43.1981 88.1677 46.3207 88.1677 50.1589C88.1677 53.9972 85.0443 57.1197 81.2069 57.1197ZM81.2069 45.5694C78.6763 45.5694 76.6174 47.6283 76.6174 50.1589C76.6174 52.6895 78.6763 54.7484 81.2069 54.7484C83.7375 54.7484 85.7964 52.6895 85.7964 50.1589C85.7964 47.6283 83.7375 45.5694 81.2069 45.5694ZM31.0849 36.8323C31.3008 36.9992 31.5557 37.0796 31.8081 37.0796L31.8082 37.0792C32.163 37.0792 32.5145 36.92 32.7482 36.616C33.1488 36.0968 33.0523 35.3524 32.534 34.9526L27.234 30.8646L32.534 26.7766C33.0523 26.376 33.148 25.6315 32.7482 25.1132C32.3476 24.5949 31.6032 24.4992 31.0849 24.8989L24.5677 29.9264C24.2763 30.1517 24.1061 30.4981 24.1061 30.8656C24.1061 31.2332 24.2763 31.5804 24.5677 31.8049L31.0849 36.8323ZM44.4632 37.0796C44.1084 37.0796 43.7569 36.9212 43.524 36.618C43.1242 36.0997 43.2199 35.3553 43.7383 34.9547L49.0383 30.8666L43.7383 26.7786C43.2199 26.3789 43.1234 25.6344 43.524 25.1152C43.9237 24.5961 44.6682 24.5004 45.1874 24.901L51.7046 29.9284C51.9959 30.1529 52.1661 30.5001 52.1661 30.8677C52.1661 31.2352 51.9959 31.5816 51.7046 31.8069L45.1874 36.8344C44.9705 36.9995 44.7156 37.08 44.4632 37.08L44.4632 37.0796ZM55.2282 47.7902H21.0432C20.3886 47.7902 19.8575 47.2592 19.8575 46.6045C19.8575 45.9498 20.3885 45.4188 21.0432 45.4188H55.2282C55.8829 45.4188 56.4139 45.9498 56.4139 46.6045C56.4139 47.2592 55.8838 47.7902 55.2282 47.7902ZM21.0432 55.9901H55.2282C55.8838 55.9901 56.4139 55.4591 56.4139 54.8044C56.4139 54.1497 55.8829 53.6187 55.2282 53.6187H21.0432C20.3885 53.6187 19.8575 54.1497 19.8575 54.8044C19.8575 55.4591 20.3886 55.9901 21.0432 55.9901ZM55.2282 64.19H21.0432C20.3886 64.19 19.8575 63.659 19.8575 63.0043C19.8575 62.3496 20.3885 61.8186 21.0432 61.8186H55.2282C55.8829 61.8186 56.4139 62.3496 56.4139 63.0043C56.4139 63.6598 55.8838 64.19 55.2282 64.19Z" fill="url(#paint0_linear_4_368)"/>
<defs>
<linearGradient id="paint0_linear_4_368" x1="10.7143" y1="14.4643" x2="87.3214" y2="107.143" gradientUnits="userSpaceOnUse">
<stop stop-color="#52ADD7"/>
<stop offset="1" stop-color="#52ADD7"/>
</linearGradient>
</defs>
</svg>
