<svg width="119" height="56" viewBox="0 0 119 56" fill="none" xmlns="http://www.w3.org/2000/svg">
<path fill-rule="evenodd" clip-rule="evenodd" d="M112.738 13.8913C112.416 13.9783 112.079 13.9937 111.752 13.9362C111.685 13.9203 111.616 13.9158 111.547 13.9228C111.429 13.9409 111.311 13.9661 111.194 13.9913L111.194 13.9913C111.135 14.0039 111.077 14.0164 111.018 14.028L110.58 14.1151C110.102 12.3119 109.053 10.7197 107.589 9.57789L107.695 9.42182L108.111 8.80693C108.188 8.69335 108.225 8.56962 108.262 8.44344C108.283 8.36994 108.305 8.2956 108.336 8.22195C108.453 7.91857 108.637 7.64482 108.873 7.42081C108.93 7.36661 108.987 7.31311 109.044 7.25962L109.044 7.25955L109.044 7.25948L109.044 7.25941L109.044 7.25934L109.045 7.25921C109.205 7.10938 109.365 6.95958 109.51 6.79451C109.698 6.60787 109.83 6.37056 109.887 6.1116C109.923 5.83436 109.76 5.62244 109.545 5.47189C109.448 5.39677 109.334 5.34579 109.213 5.323C109.091 5.30022 108.966 5.30627 108.847 5.34067C108.631 5.42506 108.45 5.57972 108.331 5.77967C108.175 6.01313 108.077 6.27258 107.979 6.53193C107.901 6.7378 107.823 6.94361 107.716 7.13633C107.547 7.42497 107.318 7.67418 107.044 7.86697C106.986 7.90374 106.934 7.94965 106.891 8.00292C106.785 8.15898 106.679 8.31504 106.575 8.47762L106.375 8.77258C105.401 8.25081 104.333 7.92389 103.231 7.80976C102.543 7.71778 101.846 7.70687 101.154 7.77725L100.963 6.75893C100.961 6.72939 100.955 6.70019 100.947 6.67168C100.933 6.63601 100.909 6.6012 100.886 6.56677C100.869 6.5421 100.853 6.51763 100.84 6.49316C100.756 6.33816 100.687 6.17559 100.633 6.00753C100.522 5.65688 100.534 5.30197 100.547 4.94444C100.554 4.73463 100.562 4.52392 100.544 4.31265C100.524 4.08297 100.485 3.82749 100.324 3.6528C100.163 3.47812 99.8992 3.45637 99.6615 3.4969C99.6505 3.49768 99.6396 3.49985 99.6291 3.50336C99.3792 3.54015 99.1519 3.67192 98.9944 3.87136C98.8942 4.04213 98.8621 4.24409 98.9045 4.43623C98.9522 4.74695 99.0787 5.03152 99.205 5.31585L99.2051 5.31594L99.2051 5.31606L99.2052 5.31618L99.2052 5.3163L99.2052 5.31641L99.2053 5.31653L99.2053 5.31663L99.2054 5.31674C99.2766 5.47704 99.3479 5.63728 99.4049 5.8021C99.5021 6.12256 99.5281 6.46128 99.4811 6.79448C99.4614 6.88568 99.4499 6.97838 99.4466 7.07146C99.4677 7.24222 99.4993 7.4114 99.5412 7.57802L99.6385 8.09891C97.9129 8.61713 96.377 9.64363 95.2311 11.0447L95.0382 10.9142L94.4616 10.5252C94.4352 10.5029 94.4067 10.4833 94.3765 10.4665C94.3206 10.45 94.2637 10.437 94.2062 10.4274C94.0291 10.3783 93.8575 10.312 93.6935 10.2296C93.3603 10.0621 93.115 9.80106 92.8682 9.53847C92.7085 9.36855 92.5482 9.19799 92.3631 9.05175C92.2727 8.95602 92.1606 8.88349 92.0362 8.84014C91.9118 8.79679 91.7786 8.78385 91.6476 8.80239C91.5166 8.82094 91.3915 8.87043 91.2826 8.9468C91.1738 9.02317 91.0842 9.12422 91.0214 9.24165C90.5075 10.0261 91.365 10.361 92.0682 10.6356C92.3034 10.7275 92.5213 10.8126 92.6649 10.9055C92.9435 11.1021 93.1869 11.3445 93.385 11.6226C93.4057 11.6521 93.4319 11.6771 93.4622 11.6964C93.5774 11.7775 93.6948 11.8563 93.812 11.9349L93.8866 11.9849L93.9622 12.0359L94.3632 12.3073C94.3519 12.3269 94.34 12.3464 94.3281 12.3659L94.3278 12.3664C94.312 12.3923 94.2961 12.4184 94.2812 12.4451C93.4356 14.0118 93.0891 15.797 93.2889 17.5573L92.3404 17.746C92.2784 17.7548 92.2182 17.7741 92.1624 17.803C91.9507 17.9334 91.7247 18.0382 91.489 18.1152C91.1724 18.2101 90.8444 18.1989 90.516 18.1876C90.2885 18.1798 90.0607 18.172 89.8364 18.1995C89.5823 18.218 89.3388 18.3135 89.1384 18.4734C89.0451 18.5622 88.977 18.6741 88.941 18.7977C88.9051 18.9212 88.9027 19.0518 88.934 19.1758C89.1293 20.146 90.0871 19.725 90.8019 19.4108C90.974 19.3351 91.1321 19.2657 91.262 19.2233C91.5737 19.1357 91.8998 19.1169 92.2179 19.1682C92.2931 19.1854 92.3701 19.1932 92.4473 19.1915C92.567 19.1767 92.6869 19.1498 92.8056 19.1232C92.8645 19.11 92.9231 19.0968 92.9813 19.0852L93.3451 19.0129C96.8038 17.9427 99.9917 17.5436 101.643 18.8304C102.98 19.8731 102.674 22.6852 102.017 25.2725C102.291 25.2667 102.564 25.2485 102.836 25.2178L103.044 26.3338C103.048 26.3655 103.054 26.3969 103.062 26.4275C103.09 26.4806 103.121 26.5317 103.155 26.5805C103.237 26.7284 103.305 26.8834 103.359 27.0438C103.452 27.326 103.49 27.6244 103.471 27.9224C103.452 28.205 103.449 28.4882 103.463 28.7707C103.482 29.0061 103.523 29.2707 103.687 29.4501C103.867 29.6466 104.137 29.651 104.39 29.6047C104.64 29.568 104.867 29.4346 105.022 29.2331C105.122 29.0607 105.153 28.8576 105.11 28.6646C105.062 28.3541 104.936 28.0696 104.81 27.7853L104.81 27.7852L104.81 27.7851L104.809 27.7849L104.809 27.7848L104.809 27.7847L104.809 27.7845C104.738 27.624 104.667 27.4637 104.61 27.2987C104.514 26.9788 104.489 26.641 104.536 26.3087C104.555 26.2175 104.566 26.1249 104.569 26.0319C104.546 25.8614 104.515 25.6923 104.474 25.5254L104.358 24.9055C105.01 24.7137 105.638 24.4487 106.232 24.1155C107.203 23.6003 108.07 22.9049 108.786 22.0665L108.966 22.1886L109.557 22.5884C109.585 22.6109 109.615 22.6311 109.646 22.6489C109.693 22.6659 109.74 22.6791 109.789 22.6882C109.946 22.7284 110.1 22.7833 110.248 22.8521C110.534 22.9872 110.789 23.1794 110.999 23.4172C111.194 23.6403 111.403 23.8499 111.627 24.0446C111.809 24.218 112.048 24.3202 112.3 24.3333C112.439 24.3206 112.573 24.2753 112.692 24.201C112.811 24.1267 112.91 24.0256 112.983 23.9057C113.515 23.0938 112.666 22.7566 111.957 22.4754C111.726 22.3833 111.509 22.2973 111.361 22.2026C111.075 22.0174 110.829 21.7773 110.636 21.4959C110.613 21.4602 110.585 21.4288 110.551 21.4034C110.447 21.325 110.336 21.2527 110.226 21.1806L110.226 21.1806L110.225 21.1805L110.225 21.1804C110.171 21.1446 110.116 21.1088 110.062 21.0725L109.673 20.8094C110.621 19.2089 111.034 17.35 110.85 15.508L111.665 15.3459C111.727 15.3369 111.788 15.3162 111.843 15.2847C112.068 15.1454 112.309 15.0365 112.562 14.9609C112.861 14.8801 113.17 14.8919 113.48 14.9036C113.721 14.9128 113.962 14.9219 114.199 14.8878C114.45 14.8638 114.689 14.766 114.886 14.6066C115.089 14.4217 115.118 14.17 115.074 13.9127C114.874 12.9626 113.906 13.3907 113.2 13.7029C113.024 13.7805 112.865 13.8509 112.738 13.8913ZM98.883 16.427L96.1545 16.9698C96.0749 15.9173 96.2686 14.8592 96.7169 13.8987L98.4028 15.0396L99.0784 15.4968C98.9686 15.7961 98.9027 16.1095 98.883 16.427ZM100.525 12.9548L100.669 13.7231C100.398 13.8521 100.148 14.0211 99.9269 14.2245L97.524 12.5997C97.8155 12.2405 98.1462 11.9151 98.5098 11.6297C99.0003 11.2649 99.5428 10.977 100.118 10.7762L100.525 12.9548ZM104.306 14.4164C104.85 13.6151 105.394 12.8143 105.937 12.0142C106.695 12.6937 107.272 13.5531 107.617 14.5156C107.631 14.5559 107.643 14.5965 107.656 14.6375L107.674 14.6919L104.843 15.2551C104.711 14.9474 104.53 14.6641 104.306 14.4164ZM101.637 10.4728C102.716 10.4128 103.786 10.6531 104.731 11.1674L103.48 13.0167L103.089 13.5984C102.801 13.4952 102.498 13.4361 102.192 13.4228L101.637 10.4728ZM103.83 22.2122L103.278 19.2601C103.525 19.1417 103.755 18.99 103.962 18.8094L106.406 20.4627C105.737 21.2311 104.887 21.8185 103.935 22.1697C103.904 22.1866 103.869 22.1977 103.833 22.2089L103.83 22.2122ZM105.574 18.0322L104.857 17.5469C104.972 17.2569 105.044 16.9523 105.072 16.6424L107.945 16.071C108.005 17.1474 107.775 18.2235 107.279 19.1856L105.574 18.0322ZM10.5655 37.2912C10.539 37.1493 10.3852 37.0475 10.1105 36.9766C9.83583 36.9056 9.43477 36.93 8.90857 37.0347C8.61818 37.0853 8.33404 37.1686 8.06149 37.2828C7.89548 37.3518 7.74533 37.4549 7.62073 37.5853C7.53574 37.673 7.48114 37.7857 7.46514 37.9066C7.45372 38.0145 7.45815 38.1232 7.47829 38.2295C7.502 38.3417 7.55166 38.4465 7.62328 38.5355C7.69489 38.6245 7.78646 38.6951 7.89064 38.7417C8.17469 38.882 8.47604 38.9846 8.78717 39.0469C9.14962 39.1261 9.5585 39.1964 10.0138 39.258C10.4691 39.3196 10.9382 39.3952 11.4212 39.4846C11.9046 39.5756 12.3821 39.6944 12.8513 39.8403C13.3077 39.9811 13.7437 40.1798 14.149 40.4317C14.5427 40.6774 14.8868 40.9951 15.1635 41.3684C15.4599 41.7815 15.6573 42.2583 15.7405 42.7623C15.8725 43.4689 15.8474 44.0898 15.6653 44.6249C15.4833 45.158 15.166 45.6356 14.7449 46.01C14.2674 46.4274 13.7207 46.757 13.1304 46.9834C12.4317 47.2568 11.71 47.465 10.9746 47.6054C10.5114 47.6976 10.0422 47.7543 9.5712 47.7751C9.11719 47.7969 8.66257 47.7826 8.21159 47.7322C7.78913 47.6837 7.37253 47.5957 6.96719 47.4693C6.59952 47.3562 6.24817 47.1964 5.92163 46.9938C5.62837 46.8111 5.36994 46.5777 5.15813 46.3043C4.95412 46.0394 4.81662 45.7287 4.7571 45.3981C4.70909 45.1684 4.70734 44.9309 4.75194 44.6995C4.79084 44.5065 4.87014 44.3236 4.98457 44.163C5.09365 44.014 5.23165 43.8887 5.3901 43.7946C5.55259 43.6996 5.72969 43.6329 5.91382 43.5973C6.14706 43.5525 6.38603 43.5507 6.61897 43.5921C6.86146 43.6324 7.09333 43.7198 7.30171 43.8493C7.53388 43.9936 7.73232 44.1862 7.88388 44.4143C8.03543 44.6424 8.13665 44.9007 8.18081 45.1722C8.20463 45.2624 8.25937 45.3409 8.33544 45.394C8.4437 45.4748 8.56634 45.5343 8.69697 45.5693C8.87746 45.6192 9.0636 45.6466 9.25122 45.6508C9.4943 45.6585 9.73772 45.6368 9.97628 45.5863C10.2763 45.5331 10.5704 45.4493 10.854 45.3361C11.0287 45.2683 11.1897 45.1685 11.3286 45.0418C11.4209 44.9573 11.4837 44.8453 11.5075 44.7226C11.524 44.6187 11.523 44.513 11.5043 44.4099C11.48 44.2796 11.3665 44.1915 11.1627 44.1321C10.9043 44.0625 10.6406 44.0138 10.3741 43.9864C10.0542 43.9474 9.68654 43.9125 9.27584 43.878C8.86514 43.8435 8.44299 43.7911 8.01152 43.7176C7.5738 43.6425 7.14191 43.538 6.71873 43.4048C6.29929 43.2752 5.90099 43.0861 5.5358 42.8432C5.17381 42.5995 4.85897 42.292 4.60624 41.9355C4.3282 41.5324 4.14277 41.0717 4.06314 40.5862C3.96527 40.1042 3.94007 39.6093 3.98837 39.1181C4.03206 38.6957 4.14577 38.2827 4.3248 37.8965C4.49698 37.5284 4.72921 37.1914 5.0118 36.8995C5.3063 36.5965 5.6378 36.3322 5.9982 36.1131C6.38824 35.877 6.80109 35.6817 7.23017 35.5304C7.69409 35.3667 8.16888 35.237 8.6508 35.1424C9.41628 34.9746 10.1999 34.9123 10.9798 34.9574C11.5522 34.9906 12.1136 35.1219 12.6398 35.3457C13.0417 35.5171 13.3964 35.7821 13.675 36.119C13.9022 36.3961 14.0588 36.7249 14.1316 37.0776C14.189 37.3458 14.1738 37.6254 14.0874 37.8873C14.0048 38.1248 13.8714 38.3417 13.6968 38.5228C13.515 38.7088 13.3013 38.8603 13.066 38.9697C12.8237 39.0863 12.568 39.1716 12.305 39.2237C12.0571 39.2737 11.8047 39.2949 11.5527 39.2869C11.3198 39.2826 11.0896 39.2409 10.8707 39.1632C10.6765 39.0956 10.4989 38.9878 10.3494 38.8469C10.205 38.7097 10.1093 38.5288 10.0765 38.3312C10.0444 38.2107 10.0578 38.0821 10.1141 37.9699C10.1668 37.8832 10.2315 37.8044 10.3062 37.7358C10.3799 37.6685 10.4458 37.6027 10.5041 37.5398C10.5342 37.5067 10.5557 37.4665 10.5664 37.4231C10.5771 37.3796 10.5768 37.3343 10.5655 37.2912ZM22.4741 39.3928L25.8887 38.7137L26.3149 41.0248C26.3584 41.2055 26.3614 41.394 26.3237 41.5768C26.2947 41.6981 26.2366 41.8107 26.1546 41.9049C26.079 41.9848 25.9883 42.0488 25.8879 42.093C25.7859 42.1389 25.6951 42.1867 25.6124 42.2342C25.5352 42.2786 25.4674 42.338 25.4132 42.4089C25.3868 42.4498 25.3694 42.4958 25.3621 42.5439C25.3548 42.5919 25.3578 42.6409 25.3709 42.6874C25.4177 42.9783 25.5569 43.2453 25.7678 43.4486C26.0027 43.6577 26.2892 43.8002 26.5982 43.8614C27.0084 43.9459 27.4288 43.9732 27.8477 43.9424C28.4025 43.9073 28.9547 43.8331 29.5001 43.7205C30.0392 43.6173 30.5707 43.4759 31.0907 43.2974C31.4871 43.1657 31.8642 42.9798 32.2111 42.745C32.4739 42.5692 32.6867 42.3275 32.8281 42.0442C32.9506 41.7746 32.9837 41.4734 32.9223 41.1854C32.9179 41.1368 32.9029 41.09 32.8783 41.0482C32.8537 41.0064 32.8202 40.9707 32.7801 40.9435C32.7001 40.8988 32.612 40.8704 32.5206 40.8601C32.4228 40.8485 32.3148 40.8403 32.1998 40.8375C32.0858 40.8364 31.9733 40.8129 31.8688 40.7682C31.7538 40.7139 31.6548 40.6309 31.5812 40.527C31.4786 40.374 31.4123 40.1992 31.3873 40.0158L30.3259 34.333C30.2833 34.1562 30.2824 33.9714 30.3234 33.7932C30.3548 33.6707 30.4174 33.5582 30.505 33.4667C30.5862 33.3855 30.6821 33.3206 30.7873 33.2755C30.8929 33.2275 30.9907 33.1811 31.0778 33.1354C31.1587 33.0938 31.2309 33.0367 31.2903 32.9675C31.3177 32.9269 31.3359 32.8808 31.3436 32.8326C31.3514 32.7844 31.3485 32.7352 31.3352 32.6884C31.2209 32.062 30.8141 31.6729 30.1146 31.5212C29.4152 31.3695 28.4592 31.4143 27.2465 31.6555C26.0158 31.9012 25.1027 32.2287 24.5072 32.6379C23.9117 33.0472 23.6724 33.5648 23.7893 34.1908C23.794 34.239 23.8089 34.2855 23.833 34.3273C23.8571 34.3691 23.8897 34.4051 23.9289 34.4331C24.0049 34.4747 24.0885 34.5008 24.175 34.5098C24.2684 34.5195 24.3694 34.5265 24.4808 34.5313C24.5899 34.5342 24.6971 34.5588 24.7962 34.6036C24.9064 34.6573 25.0009 34.7385 25.0707 34.8394C25.1702 34.9904 25.2346 35.1622 25.2589 35.3422L25.6148 37.2474L22.2159 37.9234L21.86 36.0183C21.8178 35.8418 21.8156 35.6576 21.8537 35.4793C21.8826 35.359 21.941 35.2476 22.0235 35.1552C22.0994 35.0755 22.19 35.0115 22.2903 34.9671C22.3919 34.9198 22.4845 34.8744 22.5665 34.8297C22.6437 34.7886 22.712 34.7322 22.7673 34.6642C22.7939 34.6233 22.8114 34.5773 22.8187 34.5292C22.826 34.4811 22.8229 34.4322 22.8096 34.3856C22.7633 34.0954 22.6242 33.8292 22.4133 33.6271C22.1779 33.4202 21.8919 33.2796 21.5838 33.2194C21.1736 33.1343 20.7531 33.1066 20.3341 33.1371C19.7793 33.1728 19.2272 33.2474 18.6819 33.3604C18.1515 33.4615 17.6285 33.6008 17.1171 33.777C16.7263 33.9085 16.355 34.0938 16.0138 34.3274C15.7527 34.5022 15.5407 34.7417 15.3984 35.0224C15.2754 35.291 15.2421 35.5915 15.3037 35.8787C15.3081 35.927 15.3229 35.9736 15.347 36.0154C15.371 36.0573 15.4039 36.0933 15.4433 36.121C15.5187 36.1631 15.602 36.1893 15.6881 36.1979C15.7815 36.2077 15.8826 36.2146 15.9901 36.2202C16.0979 36.2236 16.2038 36.2485 16.3015 36.2933C16.4118 36.3473 16.5066 36.4283 16.5773 36.5289C16.6769 36.6798 16.7412 36.8516 16.7655 37.0317L17.8328 42.7458C17.8754 42.9222 17.8775 43.1065 17.8392 43.2847C17.8089 43.4042 17.7499 43.5147 17.6675 43.6066C17.5921 43.6848 17.503 43.7483 17.4047 43.7939C17.3067 43.8391 17.2154 43.8842 17.1324 43.9305C17.0549 43.9705 16.9868 44.0269 16.9328 44.0958C16.9062 44.1366 16.8886 44.1826 16.8813 44.2307C16.874 44.2788 16.8772 44.3278 16.8905 44.3743C16.9373 44.6652 17.0765 44.9321 17.2874 45.1354C17.5199 45.344 17.8036 45.4869 18.11 45.5498C18.5108 45.6354 18.9222 45.6645 19.3322 45.6363C19.8705 45.6043 20.4062 45.5334 20.9352 45.4241C22.1645 45.1805 23.0781 44.8533 23.6761 44.4427C24.2741 44.032 24.5142 43.5115 24.3965 42.8813C24.3921 42.8329 24.3774 42.7863 24.3533 42.7444C24.3292 42.7026 24.2963 42.6666 24.2569 42.6389C24.1811 42.5936 24.0968 42.5645 24.0091 42.5531C23.9074 42.5394 23.8051 42.5309 23.7025 42.5277C23.5926 42.5251 23.4845 42.5007 23.3845 42.4559C23.2711 42.3999 23.1733 42.3169 23.0995 42.2141C22.9975 42.0608 22.9313 41.8861 22.9056 41.703L22.4741 39.3928ZM42.1261 31.9872C42.233 31.9015 42.3123 31.786 42.3539 31.6555C42.3755 31.5764 42.3816 31.494 42.3719 31.4129C42.3612 31.3672 42.34 31.3247 42.3099 31.289C42.2798 31.2532 42.2417 31.2251 42.1987 31.2069C42.1029 31.1558 41.9962 31.104 41.8784 31.0505C41.765 30.9998 41.6566 30.9386 41.5546 30.8678C41.5055 30.8356 41.4636 30.7937 41.4313 30.7447C41.399 30.6956 41.3769 30.6404 41.3665 30.5824C41.3023 30.2958 41.3327 29.9949 41.453 29.7251C41.5743 29.4697 41.7565 29.2478 41.9832 29.0794C42.2389 28.8915 42.5201 28.7418 42.8179 28.6351C43.1418 28.5152 43.4744 28.4215 43.8127 28.3549C44.1957 28.2768 44.5843 28.2312 44.9743 28.2184C45.311 28.2035 45.6476 28.2342 45.9751 28.3097C46.2479 28.3703 46.5019 28.4946 46.7167 28.6727C46.9178 28.8442 47.0514 29.0821 47.0942 29.3445C47.1306 29.4966 47.1088 29.6576 47.0329 29.7956C46.9488 29.9322 46.8371 30.0497 46.7051 30.1404C46.5434 30.2551 46.3717 30.3548 46.1921 30.4383C45.9959 30.5322 45.7935 30.6368 45.5851 30.7521C45.3696 30.871 45.1627 31.0051 44.966 31.1535C44.7589 31.3099 44.5757 31.4961 44.4224 31.706L43.103 33.5014L47.0267 36.905C47.192 37.0564 47.3781 37.1831 47.5794 37.2813C47.735 37.354 47.8969 37.4122 48.0633 37.4551C48.1965 37.4914 48.332 37.5181 48.4691 37.5352C48.5805 37.5463 48.6902 37.5697 48.7961 37.6052C48.89 37.638 48.9727 37.6963 49.0351 37.7737C49.1123 37.8827 49.1618 38.0091 49.1794 38.1421C49.284 38.702 49.0512 39.1702 48.4809 39.5465C47.9107 39.9229 47.0408 40.2269 45.8713 40.4586C45.346 40.5669 44.8139 40.6358 44.2792 40.6646C43.8616 40.6908 43.4431 40.6591 43.0353 40.5703C42.7204 40.505 42.4278 40.3606 42.1848 40.1506C41.9643 39.9454 41.8184 39.6719 41.77 39.3728C41.7561 39.3186 41.7558 39.2615 41.769 39.2068C41.7823 39.1521 41.8088 39.1014 41.8462 39.0592C41.924 38.9737 42.0109 38.8971 42.1054 38.8307C42.2016 38.7616 42.2898 38.6927 42.3687 38.6244C42.4054 38.5946 42.4332 38.5551 42.4487 38.5105C42.4642 38.4658 42.4668 38.4178 42.4563 38.3719C42.4388 38.2962 42.4026 38.2263 42.3509 38.1687C42.2716 38.0763 42.1861 37.9895 42.0949 37.909L40.4772 36.4628C40.4166 36.4142 40.3467 36.3785 40.2717 36.3578C40.1939 36.3339 40.1134 36.3195 40.0319 36.315C39.9464 36.3104 39.8606 36.3157 39.7761 36.3308L39.5163 36.3825L39.3655 36.4125L39.7304 38.3658C39.7556 38.5487 39.8204 38.7235 39.9203 38.8777C39.9911 38.9816 40.0875 39.0652 40.2002 39.1205C40.3007 39.165 40.4092 39.1893 40.5194 39.1921C40.6306 39.1956 40.7334 39.2049 40.8299 39.2168C40.9189 39.2276 41.0045 39.2565 41.0816 39.3017C41.1207 39.3298 41.1532 39.3659 41.1771 39.4077C41.2009 39.4496 41.2155 39.4962 41.2199 39.5444C41.3376 40.1746 41.098 40.695 40.5009 41.1055C39.9038 41.516 38.9901 41.8432 37.76 42.0869C37.231 42.1963 36.6953 42.2672 36.1569 42.2991C35.7448 42.3284 35.3312 42.2997 34.9282 42.214C34.622 42.1507 34.3384 42.0078 34.1056 41.7995C33.8948 41.5962 33.7556 41.3293 33.7088 41.0384C33.6957 40.9919 33.6927 40.9429 33.6999 40.8949C33.7072 40.8468 33.7247 40.8008 33.7511 40.7599C33.8058 40.6912 33.8743 40.6348 33.9519 40.5943C34.0349 40.5481 34.1249 40.5032 34.2243 40.4578C34.3224 40.412 34.4115 40.3485 34.4871 40.2704C34.5695 40.1786 34.6284 40.0681 34.6587 39.9486C34.6959 39.7703 34.6933 39.5863 34.6511 39.4099L33.5821 33.6867C33.5574 33.5068 33.4936 33.3351 33.3951 33.1836C33.3245 33.083 33.2297 33.0021 33.1194 32.9481C33.0215 32.9035 32.9157 32.8787 32.8079 32.875C32.6991 32.8696 32.5994 32.8624 32.5059 32.8527C32.4195 32.8437 32.3359 32.8176 32.2598 32.776C32.2207 32.748 32.188 32.712 32.164 32.6702C32.1399 32.6284 32.125 32.5819 32.1202 32.5337C32.0587 32.2465 32.092 31.946 32.215 31.6775C32.3576 31.397 32.5696 31.1575 32.8304 30.9824C33.1734 30.7477 33.547 30.5621 33.9401 30.4308C34.4515 30.2544 34.9745 30.1152 35.505 30.0141C36.0503 29.9011 36.6023 29.8265 37.1571 29.7909C37.5761 29.7605 37.9967 29.7882 38.4069 29.8732C38.7145 29.9337 39 30.0744 39.235 30.2811C39.446 30.4832 39.5851 30.7494 39.6314 31.0396C39.6446 31.086 39.6477 31.1349 39.6407 31.1829C39.6336 31.2308 39.6164 31.2769 39.5904 31.3179C39.5337 31.3864 39.4641 31.4429 39.3856 31.4842C39.2998 31.5297 39.2072 31.5751 39.1055 31.6223C39.0043 31.6675 38.9125 31.7316 38.8349 31.8112C38.7498 31.9027 38.6899 32.0147 38.6611 32.1362C38.6231 32.3145 38.6252 32.4986 38.6675 32.6751L39.1092 35.0399C39.2508 35.0118 39.3975 34.9745 39.5505 34.9279C39.7018 34.8828 39.8379 34.7958 39.9429 34.6769L42.1261 31.9872ZM54.4905 28.6567C53.8658 28.5636 53.2283 28.5838 52.6083 28.7164C52.0745 28.8205 51.5561 28.9959 51.0671 29.2377C50.6329 29.4495 50.2301 29.7216 49.8704 30.0457C49.5392 30.3475 49.2528 30.6956 49.0205 31.0791C48.7953 31.4522 48.62 31.8532 48.4993 32.2714C48.3778 32.6906 48.3083 33.1226 48.2922 33.5578C48.2603 34.4307 48.4223 35.2977 48.7663 36.0958C48.9365 36.4913 49.1523 36.8649 49.4095 37.2091C49.668 37.5535 49.9707 37.862 50.3099 38.1267C50.6578 38.3967 51.0429 38.6148 51.4536 38.7743C51.8914 38.9441 52.3522 39.0485 52.8214 39.0844C53.3508 39.1232 53.8839 39.0872 54.405 38.9774C54.9441 38.8772 55.468 38.7044 55.9625 38.4636C56.3832 38.2578 56.7706 37.9885 57.111 37.6652C57.418 37.371 57.676 37.0291 57.8747 36.653C58.0657 36.2879 58.2016 35.8966 58.2778 35.4923C58.2857 35.4553 58.289 35.4174 58.2877 35.3796C58.2861 35.341 58.2816 35.3027 58.2743 35.2648C58.2531 35.1474 58.1972 35.0395 58.114 34.955C58.0771 34.9142 58.03 34.8841 57.9775 34.8677C57.925 34.8513 57.8689 34.8493 57.815 34.8618C57.7324 34.8801 57.6557 34.9195 57.5925 34.9763C57.4825 35.0666 57.3671 35.15 57.247 35.226C57.1075 35.3159 56.9534 35.4073 56.7846 35.499C56.6112 35.5899 56.4328 35.6704 56.2502 35.7403C56.0707 35.8119 55.8853 35.8673 55.6963 35.9059C55.3817 35.9718 55.0607 35.9999 54.7403 35.9894C54.456 35.9803 54.1801 35.8953 53.941 35.7432C53.6774 35.5613 53.4635 35.3161 53.3186 35.0296C53.1106 34.6156 52.968 34.1711 52.8959 33.7118L56.5339 32.9881C56.7509 32.945 56.943 32.8986 57.1116 32.8489C57.2599 32.8106 57.3994 32.7429 57.5218 32.6498C57.6272 32.5646 57.7028 32.4477 57.7371 32.3166C57.7773 32.1348 57.7758 31.9466 57.7327 31.7664C57.6383 31.2365 57.4365 30.7329 57.1397 30.2866C56.8507 29.8534 56.4723 29.488 56.0299 29.2149C55.5596 28.928 55.0364 28.7383 54.4905 28.6567ZM53.0964 30.7451C53.2228 30.6435 53.3719 30.5744 53.5305 30.544C53.7162 30.5037 53.9074 30.4977 54.0945 30.5264C54.2631 30.5575 54.4185 30.6373 54.5417 30.7561C54.6923 30.9064 54.811 31.0857 54.8909 31.2836C55.0063 31.564 55.0899 31.8568 55.1401 32.1565L52.7287 32.6362C52.6721 32.3559 52.6489 32.0694 52.6596 31.7829C52.6672 31.5674 52.7123 31.3546 52.7928 31.154C52.859 30.9949 52.9634 30.8545 53.0964 30.7451ZM62.7752 26.694C63.3953 26.5615 64.0327 26.5413 64.6574 26.6343C65.2033 26.7159 65.7266 26.9057 66.1968 27.1925C66.6392 27.4656 67.0176 27.831 67.3066 28.2643C67.6034 28.7105 67.8052 29.2142 67.8997 29.7441C67.9424 29.9242 67.9443 30.1121 67.9053 30.294C67.8717 30.4273 67.7961 30.5465 67.6899 30.634C67.5675 30.7271 67.428 30.7948 67.2797 30.8331C67.1111 30.8828 66.919 30.9291 66.702 30.9723L63.064 31.6959C63.1361 32.1552 63.2787 32.5997 63.4867 33.0138C63.6316 33.3007 63.846 33.5459 64.1105 33.7271C64.3489 33.8798 64.6245 33.9649 64.9084 33.9735C65.2289 33.984 65.5498 33.956 65.8644 33.89C66.0534 33.8515 66.2388 33.7961 66.4183 33.7245C66.6009 33.6546 66.7793 33.574 66.9527 33.4831C67.1215 33.3915 67.2756 33.3001 67.4151 33.2102C67.5352 33.1341 67.6506 33.0507 67.7606 32.9605C67.8239 32.9037 67.9006 32.8642 67.9832 32.846C68.037 32.8335 68.0931 32.8355 68.1456 32.8519C68.1982 32.8682 68.2453 32.8983 68.2822 32.9391C68.3659 33.0233 68.4218 33.1313 68.4425 33.2489C68.4497 33.2868 68.4542 33.3252 68.4558 33.3638C68.4571 33.4016 68.4538 33.4394 68.4459 33.4765C68.3697 33.8808 68.2339 34.272 68.0428 34.6372C67.8441 35.0133 67.5862 35.3552 67.2792 35.6494C66.9387 35.9726 66.5513 36.2419 66.1306 36.4478C65.6361 36.6885 65.1122 36.8614 64.5731 36.9615C64.052 37.0713 63.519 37.1073 62.9895 37.0685C62.5203 37.0327 62.0595 36.9282 61.6218 36.7585C61.2111 36.5989 60.8259 36.3808 60.478 36.1108C60.1389 35.8462 59.8362 35.5377 59.5776 35.1932C59.3205 34.8491 59.1046 34.4755 58.9344 34.08C58.5904 33.2818 58.4285 32.4149 58.4603 31.542C58.4764 31.1068 58.546 30.6747 58.6674 30.2555C58.7882 29.8373 58.9634 29.4364 59.1886 29.0633C59.421 28.6798 59.7073 28.3317 60.0386 28.0298C60.3982 27.7057 60.8011 27.4337 61.2352 27.2219C61.7235 26.9779 62.2415 26.8004 62.7752 26.694ZM63.6974 28.5216C63.5392 28.5518 63.3905 28.6208 63.2646 28.7225C63.1308 28.8315 63.026 28.9722 62.9597 29.1316C62.8792 29.3323 62.8342 29.5451 62.8265 29.7605C62.8158 30.047 62.839 30.3335 62.8956 30.6138L65.3071 30.1342C65.2569 29.8344 65.1732 29.5416 65.0578 29.2613C64.978 29.0634 64.8592 28.884 64.7086 28.7338C64.5854 28.6149 64.43 28.5351 64.2614 28.504C64.0743 28.4753 63.8832 28.4813 63.6974 28.5216ZM80.9985 29.6695C80.9727 29.2677 80.9228 28.8681 80.8491 28.4729C80.7748 28.0679 80.6762 27.6681 80.554 27.2755C80.4272 26.8826 80.2659 26.5021 80.0721 26.1383C79.8857 25.7839 79.6605 25.4519 79.4007 25.1482C79.1488 24.8522 78.8478 24.6024 78.5108 24.4095C78.1592 24.2118 77.7744 24.0798 77.3748 24.0196C76.9119 23.952 76.4399 23.9686 75.9811 24.0685C75.668 24.1283 75.3598 24.2131 75.0596 24.3221C74.809 24.4142 74.5652 24.5245 74.3302 24.6522C74.1299 24.7602 73.9397 24.8862 73.7618 25.0286C73.609 25.1504 73.4659 25.2841 73.3338 25.4284C73.121 25.2298 72.842 25.1175 72.5499 25.113C72.0837 25.1024 71.6173 25.1498 71.1614 25.2541C70.6828 25.3457 70.2108 25.4707 69.7489 25.6283C69.3926 25.7473 69.0544 25.9164 68.7445 26.1306C68.5092 26.2927 68.3182 26.512 68.1897 26.7677C68.0774 27.0133 68.0473 27.2881 68.1042 27.5505C68.1082 27.5946 68.1213 27.6372 68.1426 27.6758C68.164 27.7143 68.1931 27.7479 68.2282 27.7743C68.2967 27.814 68.3734 27.8375 68.4526 27.8432C68.5352 27.8524 68.6279 27.8583 68.7251 27.8592C68.8227 27.8627 68.9185 27.8854 69.0071 27.926C69.1081 27.9731 69.1948 28.0462 69.2583 28.138C69.346 28.2753 69.403 28.4303 69.4253 28.5924L70.9754 36.8914C71.0141 37.0512 71.0172 37.2179 70.9845 37.3798C70.958 37.4886 70.9038 37.5887 70.8272 37.6704C70.7596 37.7421 70.6789 37.8 70.5895 37.8406C70.5048 37.8777 70.4206 37.9175 70.3423 37.96C70.2708 37.9957 70.208 38.0469 70.1587 38.11C70.1357 38.148 70.1207 38.1904 70.1148 38.2343C70.1089 38.2783 70.1121 38.3229 70.1242 38.3654C70.166 38.6308 70.2928 38.8744 70.4856 39.0593C70.697 39.2474 70.9532 39.3777 71.2301 39.4379C71.5949 39.5179 71.9698 39.5452 72.3435 39.519C72.8291 39.4881 73.3122 39.4231 73.7895 39.3245C74.914 39.1018 75.7495 38.8037 76.296 38.4302C76.8425 38.0568 77.062 37.5823 76.9545 37.0067C76.9508 36.9623 76.9374 36.9193 76.9153 36.8807C76.8932 36.8422 76.8629 36.8091 76.8266 36.7837C76.7577 36.7449 76.6812 36.7215 76.6022 36.7149C76.5168 36.7048 76.4227 36.6992 76.3212 36.6965C76.2203 36.6932 76.1213 36.6703 76.0296 36.6289C75.9285 36.5777 75.8417 36.5022 75.777 36.409C75.6848 36.2664 75.6252 36.1049 75.6024 35.9359L75.2728 34.1714C75.6431 34.2942 76.0276 34.3706 76.4175 34.3989C76.9259 34.4326 77.4373 34.3946 77.9367 34.2858C78.3967 34.203 78.8397 34.0404 79.2457 33.8052C79.592 33.6024 79.8988 33.3376 80.1509 33.0242C80.3894 32.723 80.5766 32.3844 80.705 32.0226C80.8355 31.6515 80.9242 31.2674 80.9694 30.8773C81.0153 30.476 81.025 30.0718 80.9985 29.6695ZM75.333 32.69C75.2183 32.6919 75.1039 32.683 74.9911 32.6635L74.0824 27.6687L73.9749 27.0931C73.9418 26.916 73.9055 26.7504 73.8659 26.5962C73.9404 26.5485 74.0198 26.5091 74.1027 26.4789C74.19 26.4454 74.2798 26.4194 74.3712 26.4012C74.5775 26.3536 74.7926 26.3681 74.9895 26.4429C75.1957 26.5416 75.3665 26.7012 75.4792 26.9006C75.6576 27.2013 75.7947 27.5252 75.8868 27.8636C76.0343 28.3765 76.1549 28.8971 76.2482 29.4232C76.3594 30.0187 76.4449 30.5123 76.5045 30.9038C76.5605 31.2168 76.5749 31.5364 76.5473 31.8542C76.5374 32.0576 76.4505 32.2503 76.3043 32.3928C76.1208 32.5314 75.9055 32.6208 75.679 32.6522C75.5649 32.6755 75.4491 32.6881 75.333 32.69ZM85.7855 22.1169C86.4035 21.9857 87.0387 21.9659 87.6612 22.0585C88.2068 22.1399 88.7297 22.3297 89.1993 22.617C89.6417 22.8901 90.0201 23.2555 90.3091 23.6887C90.6063 24.1348 90.8086 24.6383 90.9034 25.1682C90.9465 25.3485 90.948 25.5366 90.9078 25.7184C90.8766 25.8504 90.8037 25.9691 90.7002 26.0568C90.5777 26.1498 90.4383 26.2175 90.29 26.2559C90.1214 26.3057 89.9293 26.352 89.7123 26.3952L86.0743 27.1188C86.1457 27.5759 86.2874 28.0184 86.4945 28.4304C86.6394 28.7169 86.8533 28.9621 87.1169 29.1439C87.3557 29.2968 87.6318 29.3818 87.9162 29.3901C88.2366 29.4007 88.5576 29.3727 88.8722 29.3067C89.0612 29.2681 89.2466 29.2127 89.4261 29.1411C89.6086 29.0711 89.787 28.9905 89.9605 28.8998C90.1293 28.8081 90.2834 28.7167 90.4229 28.6268C90.5428 28.5505 90.6582 28.4671 90.7684 28.3771C90.8312 28.3205 90.9074 28.2811 90.9896 28.2629C91.0437 28.2504 91.0999 28.2524 91.1526 28.2687C91.2054 28.285 91.2527 28.315 91.2899 28.3558C91.3728 28.4405 91.4282 28.5485 91.4489 28.6658C91.4559 28.7037 91.4608 28.742 91.4636 28.7804C91.4651 28.8184 91.4613 28.8564 91.4524 28.8934C91.3773 29.2977 91.2418 29.6889 91.0506 30.0538C90.8519 30.4299 90.5939 30.7718 90.2869 31.066C89.9465 31.3893 89.5591 31.6586 89.1384 31.8644C88.6434 32.1052 88.1191 32.2781 87.5796 32.3784C87.0589 32.488 86.5263 32.5239 85.9973 32.4852C85.5281 32.4493 85.0673 32.3449 84.6295 32.1751C84.2188 32.0156 83.8337 31.7975 83.4858 31.5275C83.1463 31.2632 82.8435 30.9547 82.5854 30.6099C82.3277 30.2661 82.1118 29.8924 81.9422 29.4966C81.5964 28.699 81.4344 27.8317 81.4681 26.9586C81.4843 26.5236 81.5535 26.0917 81.6739 25.6724C81.7955 25.2542 81.9712 24.8533 82.1964 24.4799C82.4284 24.0962 82.7148 23.748 83.0463 23.4465C83.4058 23.1221 83.8087 22.8501 84.243 22.6385C84.7323 22.3963 85.2512 22.2209 85.7855 22.1169ZM86.7064 23.9448C86.5483 23.9753 86.3997 24.0443 86.2736 24.1457C86.1402 24.2547 86.0358 24.3953 85.97 24.5545C85.8884 24.7548 85.8432 24.9678 85.8368 25.1834C85.8254 25.47 85.8486 25.7565 85.9059 26.0367L88.3173 25.557C88.2665 25.2574 88.1829 24.9647 88.0681 24.6842C87.9882 24.4863 87.8695 24.3069 87.7189 24.1567C87.593 24.0376 87.4349 23.9583 87.2639 23.9284C87.079 23.9 86.8901 23.9056 86.7064 23.9448ZM97.8488 27.6063C97.7582 27.465 97.6989 27.3055 97.6752 27.1384L96.9341 23.0842C96.9047 22.9084 96.8541 22.737 96.7835 22.5739C96.7314 22.4666 96.6921 22.3534 96.6666 22.2365C96.659 22.2056 96.6591 22.1732 96.667 22.1422C96.6748 22.1112 96.6901 22.0825 96.7116 22.0588C96.7982 21.9916 96.9017 21.9504 97.0101 21.94C97.0738 21.9224 97.1403 21.9186 97.2052 21.929C97.2702 21.9394 97.332 21.9637 97.3865 22.0001C97.4858 22.0772 97.5698 22.1722 97.6343 22.2804L97.6356 22.2828C97.7004 22.4002 97.7712 22.5284 97.8413 22.6674C97.9112 22.8076 98.0051 22.9343 98.1187 23.0417C98.2469 23.1568 98.4009 23.2391 98.5679 23.2819C98.8017 23.3354 99.0455 23.3332 99.2795 23.2754C99.5483 23.2279 99.8045 23.123 100.031 22.9679C100.225 22.8339 100.39 22.6608 100.515 22.4596C100.633 22.2663 100.711 22.0519 100.746 21.8288C100.782 21.6051 100.779 21.3772 100.738 21.1553C100.693 20.8575 100.572 20.5773 100.386 20.3419C100.219 20.1404 100.004 19.9833 99.7618 19.884C99.5071 19.7807 99.2351 19.7258 98.9595 19.7221C98.4332 19.712 97.9086 19.8017 97.4133 19.9865C97.2292 20.0568 97.0515 20.1432 96.8821 20.2448C96.727 20.3394 96.5787 20.4452 96.4386 20.5612C96.3032 20.6732 96.174 20.7894 96.0494 20.9088C95.8182 20.7413 95.5461 20.6392 95.2611 20.6131C94.8511 20.5802 94.4378 20.611 94.0357 20.7042C93.5523 20.7963 93.0755 20.9223 92.609 21.0812C92.2526 21.2002 91.9144 21.3693 91.6045 21.5836C91.3692 21.7457 91.1782 21.9649 91.0498 22.2206C90.938 22.4664 90.908 22.741 90.9642 23.0034C90.9682 23.0479 90.9817 23.0908 91.0038 23.1293C91.0259 23.1677 91.056 23.2009 91.0921 23.2265C91.1611 23.265 91.2376 23.2884 91.3165 23.2953C91.3965 23.3051 91.4892 23.3109 91.589 23.3114C91.6868 23.3138 91.7828 23.3365 91.871 23.3782C91.9709 23.427 92.0571 23.4998 92.1222 23.5902C92.212 23.7265 92.2704 23.8814 92.2931 24.0438L93.0486 28.0884C93.087 28.2491 93.0888 28.4167 93.054 28.579C93.0248 28.6867 92.971 28.7862 92.8967 28.8696C92.8293 28.9412 92.7484 28.9987 92.6588 29.0385C92.5715 29.0761 92.4875 29.1171 92.4116 29.1579C92.3411 29.195 92.2786 29.2461 92.228 29.3078C92.2037 29.3455 92.1877 29.3878 92.181 29.432C92.1744 29.4762 92.1773 29.5212 92.1896 29.564C92.2319 29.8292 92.3587 30.0726 92.551 30.2579C92.7624 30.446 93.0186 30.5763 93.2955 30.6365C93.6602 30.7172 94.0352 30.7445 94.4089 30.7176C94.8993 30.6867 95.3874 30.6212 95.8694 30.5216C96.9937 30.298 97.8291 29.9995 98.3757 29.626C98.9222 29.2526 99.1417 28.7781 99.0342 28.2025C99.0304 28.158 99.0171 28.115 98.995 28.0765C98.9729 28.038 98.9426 28.0049 98.9063 27.9795C98.836 27.9409 98.7582 27.9177 98.678 27.9114C98.5902 27.9032 98.4959 27.8963 98.3969 27.893C98.2963 27.8887 98.1974 27.8658 98.1054 27.8254C98.0024 27.7758 97.9141 27.7004 97.8488 27.6063Z" fill="white"/>
<path fill-rule="evenodd" clip-rule="evenodd" d="M16.4881 47.6297L16.4101 47.2117C16.2406 47.1923 16.0691 47.1964 15.9003 47.2239C15.7672 47.2467 15.6422 47.3046 15.5382 47.3919C15.4503 47.4676 15.3886 47.5693 15.362 47.6822C15.3404 47.8569 15.3506 48.0338 15.3921 48.2043L15.4894 48.7251L15.0541 48.8117L15.123 49.1802L15.5582 49.0937L16.1096 52.0458L16.5358 51.961L15.9844 49.0089L16.6756 48.8714L16.6068 48.5029L15.9156 48.6404L15.8316 48.1911C15.8042 48.0754 15.7897 47.9569 15.7885 47.8377C15.7984 47.7841 15.8272 47.7357 15.8695 47.7014C15.926 47.6528 15.9947 47.6209 16.0679 47.6093C16.2083 47.5883 16.3511 47.5953 16.4881 47.6297ZM13.2839 47.8335L13.7101 47.7488L14.5699 52.3521L14.1437 52.4369L13.2839 47.8335ZM7.72888 50.9402L7.94871 50.602C7.58224 50.3643 7.24893 50.2753 6.94507 50.3222C6.825 50.3424 6.70987 50.3864 6.60636 50.4515C6.50286 50.5166 6.41304 50.6016 6.34213 50.7015C6.27252 50.7992 6.22389 50.9102 6.19936 51.0274C6.17484 51.1447 6.17498 51.2655 6.19976 51.3821C6.23055 51.5695 6.32124 51.741 6.45816 51.871C6.6617 52.0344 6.89962 52.1495 7.15444 52.2079C7.3686 52.2553 7.57284 52.3389 7.7585 52.4551C7.8527 52.5304 7.91628 52.6376 7.93754 52.7571C7.95172 52.8314 7.94943 52.9082 7.93084 52.9819C7.91224 53.0556 7.87778 53.1245 7.82991 53.1837C7.73198 53.3166 7.58709 53.4069 7.42554 53.4357C7.18128 53.4842 6.92698 53.407 6.66265 53.2038L6.45191 53.5618C6.59408 53.6865 6.76398 53.7754 6.94773 53.8211C7.13406 53.8717 7.32988 53.8789 7.52035 53.8422C7.65339 53.8198 7.78078 53.7704 7.89475 53.6972C8.00871 53.6239 8.10687 53.5282 8.18323 53.4159C8.25946 53.3081 8.31283 53.1858 8.33997 53.0567C8.36712 52.9277 8.36746 52.7947 8.34097 52.6661C8.30787 52.4784 8.21491 52.3074 8.07607 52.1785C7.85799 52.0107 7.6061 51.8923 7.33741 51.8311C7.13043 51.7845 6.93419 51.7 6.75852 51.5816C6.66689 51.512 6.60325 51.4117 6.57899 51.2986C6.56783 51.2376 6.56994 51.1748 6.58517 51.1144C6.60041 51.054 6.62841 50.9975 6.66727 50.9488C6.7461 50.8385 6.86478 50.7634 6.99749 50.7399C7.21577 50.6965 7.45862 50.763 7.72888 50.9402ZM12.6845 51.7804L12.2894 51.6631C12.2254 51.8564 12.1328 52.0392 12.0147 52.2053C11.9135 52.3315 11.7905 52.4383 11.6518 52.5206C11.5051 52.6104 11.3439 52.6736 11.1759 52.7071C11.0121 52.7432 10.8429 52.7446 10.6793 52.711C10.5157 52.6775 10.3612 52.6099 10.2259 52.5125C9.93623 52.3045 9.74018 51.9902 9.67958 51.6366L12.6692 51.0419C12.6035 50.6311 12.3999 50.2567 12.0923 49.9803C11.8954 49.804 11.6588 49.6779 11.4024 49.6126C11.146 49.5473 10.877 49.5447 10.618 49.605C10.3633 49.6472 10.1217 49.7501 9.91358 49.905C9.70544 50.0599 9.53683 50.2623 9.42193 50.4953C9.22561 50.8652 9.16222 51.2907 9.24254 51.6992C9.32403 52.1435 9.56708 52.5398 9.92464 52.8115C10.2959 53.1059 10.7517 53.1994 11.2922 53.0919C11.5143 53.051 11.7275 52.9697 11.9212 52.852C12.1001 52.7399 12.2559 52.5942 12.3801 52.423C12.5186 52.2283 12.6217 52.0106 12.6845 51.7804ZM11.7719 50.2709C11.923 50.4094 12.0424 50.5791 12.1223 50.7685L9.65046 51.2642C9.66494 50.9908 9.75559 50.7262 9.91206 50.5004C10.1007 50.2434 10.3793 50.0677 10.6908 50.0092C10.8863 49.9716 11.0872 49.9777 11.279 50.0273C11.4603 50.0689 11.629 50.1523 11.7719 50.2709ZM19.6282 46.5716L20.0544 46.4869L20.4051 48.3647C20.5178 48.1253 20.6796 47.9121 20.8799 47.7394C21.0647 47.5857 21.285 47.4814 21.52 47.4365C21.753 47.3853 21.9952 47.4054 22.2153 47.4941C22.4279 47.5793 22.6091 47.7273 22.7353 47.9187C22.9029 48.2187 23.0125 48.5483 23.0583 48.8904L23.3776 50.6002L22.9514 50.6849L22.6554 49.1002C22.6163 48.8423 22.5532 48.589 22.4669 48.3435C22.394 48.1576 22.26 48.0029 22.0871 47.9045C21.9075 47.819 21.7033 47.7986 21.509 47.8466C21.2543 47.8971 21.0255 48.0386 20.8651 48.2448C20.6967 48.4475 20.5967 48.6984 20.5798 48.9606C20.5842 49.2692 20.6203 49.5761 20.6875 49.8765L20.9149 51.0941L20.4887 51.1789L19.6282 46.5716ZM26.3942 46.6089C26.157 46.5565 25.9106 46.557 25.6724 46.6105C25.4314 46.6524 25.202 46.7468 25.0002 46.887C24.7985 47.0273 24.6293 47.2099 24.5048 47.4222C24.268 47.8136 24.1855 48.2786 24.2739 48.7247C24.3622 49.1708 24.6148 49.5654 24.9815 49.83C25.1752 49.9621 25.3936 50.0542 25.6238 50.1008C25.8541 50.1475 26.0918 50.1478 26.3232 50.1018C26.5546 50.0557 26.7751 49.9643 26.9721 49.8326C27.1691 49.701 27.3386 49.5318 27.4709 49.3348C27.7161 48.9481 27.8085 48.4844 27.7297 48.0359C27.6509 47.5875 27.4067 47.187 27.0457 46.914C26.8538 46.7655 26.6315 46.6614 26.3942 46.6089ZM25.2735 47.2269C25.4173 47.1286 25.5796 47.0611 25.7499 47.0286C25.9196 46.9938 26.0941 46.9945 26.2627 47.0306C26.4316 47.0667 26.5908 47.1376 26.7304 47.2388C26.8792 47.3382 27.0062 47.467 27.1038 47.6175C27.2014 47.768 27.2675 47.937 27.2982 48.1145C27.3431 48.3492 27.3263 48.5922 27.2493 48.8197C27.1778 49.0427 27.0461 49.2419 26.869 49.3951C26.6909 49.5452 26.4782 49.6477 26.2509 49.693C26.0235 49.7382 25.7891 49.7246 25.5697 49.6536C25.3501 49.5793 25.1561 49.4449 25.0094 49.2653C24.8555 49.084 24.7522 48.8646 24.71 48.6293C24.6739 48.4535 24.6733 48.2718 24.7084 48.0951C24.7434 47.9183 24.8133 47.75 24.914 47.6001C25.0071 47.4523 25.1295 47.3252 25.2735 47.2269ZM30.3873 46.1386L30.1678 46.4713C29.8975 46.2941 29.6546 46.2276 29.4364 46.271C29.3038 46.2948 29.1852 46.3698 29.1061 46.4799C29.0675 46.5296 29.04 46.587 29.0256 46.6482C29.0112 46.7094 29.0102 46.7728 29.0227 46.8341C29.047 46.9472 29.1106 47.0476 29.2023 47.1171C29.3779 47.2355 29.5742 47.3201 29.7812 47.3667C30.0498 47.4278 30.3017 47.5463 30.5198 47.714C30.6587 47.8429 30.7516 48.014 30.7847 48.2016C30.8093 48.3304 30.8071 48.4631 30.7782 48.5916C30.7493 48.72 30.6944 48.8414 30.6169 48.9481C30.5405 49.0603 30.4424 49.156 30.3284 49.2293C30.2145 49.3026 30.0871 49.3519 29.954 49.3744C29.7636 49.4109 29.5678 49.4037 29.3814 49.3532C29.1978 49.3071 29.028 49.2183 28.8856 49.0939L29.0963 48.736C29.3607 48.9391 29.615 49.0164 29.8592 48.9678C30.021 48.9386 30.1662 48.8483 30.2649 48.7156C30.3123 48.6562 30.3464 48.5873 30.3648 48.5137C30.3832 48.4401 30.3854 48.3635 30.3712 48.2892C30.35 48.1698 30.2864 48.0625 30.1922 47.9872C30.0067 47.8706 29.8024 47.787 29.5881 47.74C29.3337 47.6816 29.0962 47.5664 28.8931 47.4028C28.7559 47.2731 28.6647 47.1016 28.6334 46.9143C28.6087 46.7976 28.6085 46.6768 28.633 46.5596C28.6576 46.4423 28.7062 46.3313 28.7758 46.2336C28.8467 46.1337 28.9365 46.0487 29.04 45.9836C29.1435 45.9185 29.2587 45.8746 29.3787 45.8543C29.6862 45.8121 30.0221 45.9006 30.3873 46.1386ZM32.0912 44.1439L31.6637 44.2289L31.894 45.4621L31.3133 45.5776L31.3821 45.9462L31.9629 45.8306L32.5143 48.7827L32.9417 48.6977L32.3903 45.7456L33.066 45.6112L32.9971 45.2427L32.3215 45.3771L32.0912 44.1439ZM37.2901 46.6902L37.6839 46.8077C37.6216 47.0378 37.5189 47.2554 37.3808 47.4501C37.2561 47.6209 37.1004 47.7664 36.9219 47.879C36.7262 47.9978 36.5108 48.0796 36.2864 48.1202C35.7459 48.2278 35.2901 48.1343 34.9189 47.8399C34.5617 47.5679 34.3187 47.1717 34.2368 46.7276C34.1571 46.319 34.2205 45.8938 34.4162 45.5237C34.5311 45.2907 34.6997 45.0883 34.9078 44.9334C35.1159 44.7785 35.3575 44.6756 35.6123 44.6334C35.8713 44.5731 36.1402 44.5757 36.3966 44.641C36.6531 44.7063 36.8896 44.8323 37.0865 45.0087C37.3946 45.2848 37.5986 45.6592 37.6648 46.0701L34.6764 46.6645C34.737 47.0181 34.9331 47.3324 35.2227 47.5404C35.3581 47.6378 35.5125 47.7054 35.6761 47.7389C35.8397 47.7724 36.0089 47.7711 36.1727 47.735C36.3408 47.7015 36.5019 47.6383 36.6486 47.5485C36.7876 47.4665 36.9107 47.3596 37.0115 47.2332C37.1306 47.0668 37.2245 46.8838 37.2901 46.6902ZM37.123 45.7956C37.0427 45.6062 36.9228 45.4366 36.7714 45.2983C36.6288 45.1792 36.4599 45.0957 36.2785 45.0546C36.0866 45.0049 35.8857 44.9987 35.6903 45.0366C35.38 45.0924 35.1014 45.2647 34.9111 45.5184C34.7532 45.7434 34.6625 46.0085 34.6495 46.2822L37.123 45.7956ZM42.5149 46.7935L41.6551 42.1902L41.2419 42.2723L41.5953 44.1645C41.4048 43.9773 41.1725 43.8384 40.9172 43.7591C40.6673 43.6863 40.4026 43.6768 40.1467 43.7314C39.9204 43.7734 39.7047 43.8616 39.5129 43.9906C39.3212 44.1196 39.1575 44.2866 39.0321 44.4812C38.9003 44.6736 38.8082 44.8905 38.7614 45.1186C38.7147 45.3468 38.7142 45.5816 38.76 45.8089C38.7982 46.04 38.8825 46.2606 39.0079 46.4572C39.1334 46.6539 39.2973 46.8227 39.4899 46.9535C39.7828 47.1566 40.1324 47.2621 40.4901 47.2554C40.8478 47.2486 41.1957 47.1299 41.4853 46.9159C41.6963 46.7503 41.8701 46.5416 41.9949 46.304L42.1017 46.8757L42.5149 46.7935ZM39.6275 44.4438C39.8051 44.2873 40.0208 44.1814 40.2521 44.1372C40.4249 44.0994 40.6032 44.0979 40.7758 44.1329C40.9484 44.1678 41.1115 44.2384 41.2549 44.3402C41.4034 44.442 41.5295 44.5732 41.6256 44.7259C41.7218 44.8785 41.7859 45.0494 41.8143 45.2284C41.8617 45.4652 41.8472 45.7109 41.7723 45.9417C41.697 46.1655 41.5609 46.3643 41.3795 46.5155C41.1993 46.6722 40.9818 46.7788 40.7487 46.8247C40.5201 46.8708 40.2841 46.8538 40.0657 46.7755C39.8407 46.6964 39.6419 46.5572 39.4905 46.3727C39.335 46.1921 39.23 45.9731 39.186 45.7377C39.142 45.5022 39.1606 45.2586 39.24 45.0314C39.3148 44.8047 39.4486 44.6018 39.6275 44.4438ZM45.2424 41.4767L45.6686 41.3919L46.1585 44.0145L47.4439 42.3691L48.0702 42.2445L46.547 44.1898L48.7983 45.5437L48.198 45.6631L46.2505 44.5L46.5297 45.995L46.1036 46.0797L45.2424 41.4767ZM52.6634 43.8281L52.2682 43.7109C52.205 43.9038 52.1133 44.0864 51.9961 44.2525C51.895 44.3787 51.772 44.4855 51.6332 44.5678C51.4864 44.6575 51.3253 44.7206 51.1573 44.7543C50.9933 44.7905 50.824 44.7919 50.6601 44.7584C50.4963 44.7249 50.3416 44.6574 50.206 44.56C49.9169 44.3515 49.721 44.0374 49.6597 43.6841L52.6481 43.0897C52.5823 42.6789 52.3788 42.3044 52.0711 42.028C51.8742 41.8517 51.6377 41.7256 51.3813 41.6603C51.1248 41.595 50.8559 41.5924 50.5969 41.6527C50.3421 41.6949 50.1006 41.7978 49.8924 41.9527C49.6843 42.1076 49.5157 42.3101 49.4008 42.543C49.2045 42.9129 49.1411 43.3384 49.2214 43.747C49.3029 44.1912 49.5459 44.5876 49.9035 44.8592C50.2747 45.1536 50.7306 45.2471 51.2711 45.1396C51.4931 45.0986 51.7063 45.0173 51.9 44.8997C52.0787 44.7873 52.2345 44.6417 52.3589 44.4707C52.4975 44.276 52.6006 44.0584 52.6634 43.8281ZM51.7508 42.3187C51.9018 42.4572 52.0213 42.6268 52.1011 42.8162L49.6293 43.312C49.6438 43.0385 49.7344 42.7739 49.8909 42.5482C50.0795 42.2911 50.3582 42.1154 50.6697 42.057C50.8651 42.0194 51.066 42.0256 51.2579 42.075C51.439 42.117 51.6077 42.2003 51.7508 42.3187ZM56.7699 42.8154L57.1651 42.9326C57.1023 43.1629 56.9992 43.3805 56.8607 43.5753C56.7365 43.7465 56.5806 43.8922 56.4017 44.0042C56.208 44.122 55.9949 44.2033 55.7728 44.2441C55.2323 44.3516 54.7764 44.2582 54.4052 43.9637C54.0477 43.6921 53.8046 43.2958 53.7231 42.8515C53.6428 42.4429 53.7062 42.0175 53.9025 41.6475C54.0174 41.4146 54.186 41.2121 54.3941 41.0572C54.6023 40.9023 54.8439 40.7994 55.0986 40.7573C55.3576 40.697 55.6265 40.6996 55.883 40.7648C56.1394 40.8301 56.3759 40.9562 56.5728 41.1326C56.8805 41.4089 57.084 41.7834 57.1498 42.1942L54.1602 42.7888C54.2202 43.1427 54.4164 43.4572 54.7065 43.6648C54.8418 43.7621 54.9962 43.8298 55.1599 43.8633C55.3235 43.8968 55.4926 43.8955 55.6565 43.8594C55.8245 43.8258 55.9856 43.7627 56.1323 43.6729C56.2711 43.5905 56.3941 43.4837 56.4952 43.3576C56.6133 43.1915 56.7059 43.0087 56.7699 42.8154ZM56.6028 41.9208C56.523 41.7313 56.4035 41.5617 56.2525 41.4232C56.1096 41.3045 55.9409 41.2211 55.7596 41.1795C55.5677 41.1301 55.3669 41.1239 55.1714 41.1615C54.8607 41.2172 54.5816 41.3896 54.3909 41.6436C54.2345 41.8693 54.1438 42.1339 54.1293 42.4074L56.6028 41.9208ZM58.502 40.1695L58.0745 40.2546L58.9225 44.7941L59.3486 44.7093L59.0151 42.924C59.216 43.0964 59.4515 43.2236 59.706 43.2971C60.0521 43.3851 60.4182 43.3615 60.7526 43.2296C61.087 43.0976 61.3728 42.864 61.5698 42.5617C61.7012 42.3662 61.7924 42.1466 61.838 41.916C61.8836 41.6853 61.8826 41.4483 61.8351 41.2191C61.7962 40.9902 61.7112 40.7722 61.5853 40.5783C61.4594 40.3843 61.2953 40.2186 61.103 40.0911C60.917 39.9585 60.7054 39.8661 60.4813 39.8198C60.2573 39.7735 60.0256 39.7743 59.8008 39.8221C59.5449 39.8695 59.3039 39.9796 59.0993 40.1426C58.8922 40.3153 58.7268 40.533 58.6158 40.779L58.502 40.1695ZM59.3527 40.4388C59.5005 40.3396 59.6669 40.2722 59.8413 40.2408L59.8444 40.2429C60.0757 40.1954 60.3148 40.2114 60.5364 40.2893C60.7581 40.3672 60.954 40.504 61.1034 40.6853C61.2586 40.866 61.3634 41.085 61.4074 41.3204C61.4514 41.5557 61.4329 41.7992 61.354 42.0266C61.2799 42.2559 61.1455 42.4614 60.9651 42.6212C60.7908 42.7779 60.5777 42.8842 60.3488 42.9288C60.1158 42.9752 59.8755 42.9597 59.6518 42.8838C59.4287 42.8134 59.2307 42.681 59.0805 42.5018C58.9273 42.3165 58.8253 42.0938 58.7846 41.8556C58.7465 41.6787 58.7444 41.4955 58.7785 41.3171C58.8125 41.1386 58.882 40.9684 58.9827 40.8168C59.0789 40.6666 59.2049 40.5379 59.3527 40.4388ZM65.9758 40.9843L66.371 41.1015C66.3081 41.3318 66.2051 41.5494 66.0665 41.7442C65.9424 41.9154 65.7865 42.0611 65.6076 42.1731C65.4138 42.2907 65.2007 42.372 64.9787 42.413C64.4382 42.5205 63.9823 42.4271 63.6111 42.1327C63.2535 41.861 63.0105 41.4647 62.929 41.0204C62.8487 40.6118 62.9121 40.1864 63.1084 39.8165C63.2233 39.5835 63.3919 39.3811 63.6 39.2262C63.8082 39.0712 64.0497 38.9684 64.3045 38.9262C64.5635 38.8659 64.8324 38.8685 65.0889 38.9338C65.3453 38.9991 65.5818 39.1251 65.7787 39.3015C66.0864 39.5778 66.2899 39.9523 66.3557 40.3631L63.366 40.9578C63.4262 41.3113 63.6218 41.6257 63.911 41.8339C64.0466 41.9313 64.2013 41.9989 64.3651 42.0324C64.529 42.0658 64.6983 42.0645 64.8623 42.0283C65.0303 41.9946 65.1914 41.9315 65.3382 41.8418C65.477 41.7595 65.5999 41.6526 65.7011 41.5265C65.8192 41.3604 65.9118 41.1776 65.9758 40.9843ZM65.8087 40.0897C65.7288 39.9003 65.6094 39.7306 65.4584 39.5921C65.3153 39.4738 65.1466 39.3904 64.9655 39.3485C64.7736 39.299 64.5727 39.2929 64.3773 39.3304C64.0658 39.3888 63.7871 39.5646 63.5985 39.8216C63.442 40.0473 63.3514 40.312 63.3369 40.5854L65.8087 40.0897ZM67.5474 38.3702L67.1122 38.4567L67.7314 41.7722L68.1667 41.6856L67.9568 40.5618C67.8696 40.1807 67.8243 39.7907 67.8218 39.3988C67.8297 39.1829 67.899 38.9732 68.0215 38.7945C68.1118 38.6643 68.2471 38.5723 68.4006 38.5368C68.4793 38.5257 68.5592 38.5299 68.636 38.5493L68.7921 38.151C68.6652 38.1042 68.5282 38.091 68.3941 38.1126C68.2332 38.1457 68.0854 38.2264 67.9698 38.3442C67.8273 38.4913 67.7146 38.6647 67.6379 38.8546L67.5474 38.3702Z" fill="white"/>
</svg>
