<svg width="109" height="109" viewBox="0 0 109 109" fill="none" xmlns="http://www.w3.org/2000/svg">
<path fill-rule="evenodd" clip-rule="evenodd" d="M54.4747 108.988C54.5676 108.995 54.661 108.999 54.7546 109V108.956C55.5072 108.843 56.2179 108.516 56.7989 108.005C57.331 107.39 57.6104 106.597 57.5807 105.784C57.6193 104.495 57.3251 103.247 57.0308 102L57.0303 101.999L57.0303 101.998C56.864 101.294 56.6978 100.591 56.5909 99.8796C56.4452 98.5135 56.5968 97.1319 57.0367 95.8306C57.1824 95.4784 57.2983 95.1143 57.3786 94.7422C57.4172 94.0368 57.4172 93.3303 57.3786 92.6252V90.0345C60.1548 89.7839 62.8953 89.2198 65.5437 88.353C69.8536 87.0556 73.8783 84.9482 77.4005 82.1434L78.0396 82.7801L80.1232 84.8646C80.2183 84.9779 80.3253 85.0834 80.4383 85.1803C80.6107 85.2858 80.7949 85.3768 80.9822 85.4523C81.5886 85.7409 82.1682 86.0854 82.7121 86.481C83.7673 87.2547 84.6531 88.2341 85.3189 89.3598C85.9401 90.415 86.6268 91.4277 87.3817 92.391C87.9911 93.2364 88.8769 93.8397 89.8845 94.0945C90.4552 94.1548 91.0318 94.0796 91.5669 93.8754C92.1019 93.6712 92.5805 93.3434 92.9669 92.9189C95.7252 90.0734 92.5507 88.0341 89.9023 86.333C89.0344 85.7766 88.2259 85.2561 87.6968 84.7559C86.6832 83.7803 85.8688 82.6154 85.3041 81.3272C85.2387 81.1652 85.1465 81.016 85.0306 80.8864C84.6759 80.4957 84.2928 80.1234 83.9118 79.7533L83.8862 79.7284C83.6901 79.5396 83.4969 79.3512 83.3066 79.1612L81.9334 77.7898C86.9686 72.0998 90.0361 64.9402 90.687 57.3708H94.0993C94.3579 57.3847 94.6195 57.3496 94.8662 57.2673C95.8768 56.886 96.935 56.6407 98.011 56.5382C99.2788 56.4524 100.517 56.7471 101.758 57.0426L101.762 57.0435L101.772 57.0457C102.734 57.2748 103.697 57.5038 104.678 57.5559C105.709 57.6603 106.75 57.4578 107.665 56.9736C108.622 56.3913 108.934 55.4007 108.949 54.3288C108.857 50.3399 104.625 51.2887 101.536 51.9809L101.528 51.9828C100.764 52.1539 100.072 52.309 99.5299 52.3694C98.1626 52.4622 96.7923 52.2541 95.5142 51.7601C95.2556 51.6427 94.9791 51.569 94.6968 51.5422C94.2063 51.5205 93.7129 51.5276 93.2165 51.5351C92.9728 51.5386 92.7261 51.5422 92.4823 51.5422H90.6484C90.0777 43.8931 87.0399 36.636 81.9899 30.8622L82.5338 30.318L84.6769 28.1737C85.0729 27.7805 85.3131 27.3143 85.5583 26.8385L85.5626 26.8301L85.579 26.7981L85.5791 26.7979C85.7163 26.5296 85.8549 26.2587 86.0263 25.9968C86.7308 24.8688 87.679 23.913 88.8026 23.1996C89.0731 23.0264 89.3435 22.8567 89.614 22.687L89.617 22.6855C90.3779 22.2103 91.1358 21.7349 91.8462 21.1859C92.7499 20.5853 93.4573 19.7343 93.8853 18.737C94.239 17.6486 93.7397 16.6635 92.9876 15.8853C92.6518 15.5044 92.2297 15.2076 91.7571 15.0187C91.2845 14.8297 90.7732 14.7537 90.2679 14.7969C89.3316 14.964 88.4815 15.4414 87.8514 16.152C87.0463 16.9677 86.455 17.9337 85.8639 18.8995L85.8638 18.8996L85.8628 18.9012L85.8364 18.944C85.3727 19.6967 84.9099 20.4478 84.347 21.1261C83.4433 22.1532 82.3287 22.9736 81.0803 23.5315C80.8187 23.6331 80.572 23.7764 80.358 23.956L80.355 23.9565C79.8111 24.5006 79.2672 25.0446 78.7232 25.6159L77.6948 26.6444C74.1547 23.7609 70.0885 21.5878 65.7221 20.2444C63.0142 19.3225 60.2053 18.7197 57.3578 18.4485V14.1928C57.3696 14.0715 57.3696 13.9495 57.3578 13.8282C57.3251 13.6728 57.2567 13.5137 57.1884 13.3563L57.1834 13.3446C57.1375 13.2359 57.092 13.128 57.0576 13.0227C56.8376 12.3311 56.6801 11.6206 56.5909 10.9003C56.4066 9.39821 56.7247 7.97825 57.0457 6.54782L57.0563 6.50003C57.2401 5.67637 57.4248 4.84859 57.5094 3.99963C57.6045 3.05813 57.6342 1.99691 57.12 1.16427C56.6364 0.385803 55.6853 0.0735109 54.7546 0.0139246V8.68193e-05C54.6868 -0.00035774 54.6188 0.000904093 54.5506 0.0038928C54.5258 0.00122046 54.5001 0.00028802 54.4747 0.00109547C54.4492 0.00028802 54.4236 0.00122046 54.3987 0.0038928C54.3306 0.000904093 54.2626 -0.00035774 54.1947 8.68193e-05V0.0139246C53.2641 0.0735109 52.3129 0.385803 51.8294 1.16427C51.3152 1.99691 51.3448 3.05813 51.44 3.99963C51.5245 4.84859 51.7092 5.67637 51.893 6.50003L51.9037 6.54782C52.2247 7.97825 52.5427 9.39821 52.3584 10.9003C52.2693 11.6206 52.1117 12.3311 51.8918 13.0227C51.8573 13.128 51.8118 13.2359 51.7659 13.3446L51.761 13.3563C51.6926 13.5137 51.6243 13.6728 51.5916 13.8282C51.5797 13.9495 51.5797 14.0715 51.5916 14.1928V18.4485C48.744 18.7197 45.9351 19.3225 43.2273 20.2444C38.8609 21.5878 34.7946 23.7609 31.2545 26.6444L30.2261 25.6159C29.6822 25.0446 29.1382 24.5006 28.5943 23.9565L28.5913 23.956C28.3773 23.7764 28.1306 23.6331 27.869 23.5315C26.6206 22.9736 25.506 22.1532 24.6024 21.1261C24.0394 20.4478 23.5766 19.6967 23.1129 18.944L23.0865 18.9012L23.0856 18.8996L23.0855 18.8995C22.4943 17.9337 21.903 16.9677 21.098 16.152C20.4678 15.4414 19.6177 14.964 18.6814 14.7969C18.1761 14.7537 17.6649 14.8297 17.1923 15.0187C16.7197 15.2076 16.2976 15.5044 15.9617 15.8853C15.2097 16.6635 14.7103 17.6486 15.064 18.737C15.4921 19.7343 16.1995 20.5853 17.1031 21.1859C17.8135 21.7349 18.5715 22.2103 19.3324 22.6855L19.3353 22.687C19.6058 22.8567 19.8763 23.0264 20.1468 23.1996C21.2703 23.913 22.2185 24.8688 22.923 25.9968C23.0945 26.2588 23.233 26.5296 23.3703 26.798L23.3704 26.7981L23.3867 26.8301L23.391 26.8385C23.6362 27.3143 23.8765 27.7805 24.2724 28.1737L26.4155 30.318L26.9595 30.8622C21.9094 36.636 18.8717 43.8931 18.301 51.5422H16.467C16.2233 51.5422 15.9765 51.5386 15.7328 51.5351C15.2364 51.5276 14.743 51.5205 14.2526 51.5422C13.9702 51.569 13.6938 51.6427 13.4352 51.7601C12.157 52.2541 10.7868 52.4622 9.41948 52.3694C8.87754 52.309 8.18511 52.1539 7.42158 51.9828L7.42153 51.9828L7.41312 51.9809C4.32482 51.2887 0.0921402 50.3399 0 54.3288C0.0148582 55.4007 0.326981 56.3913 1.28408 56.9736C2.19958 57.4578 3.23993 57.6603 4.27134 57.5559C5.25197 57.5038 6.21485 57.2748 7.17771 57.0457L7.18721 57.0435L7.1911 57.0426C8.43225 56.7471 9.67049 56.4524 10.9384 56.5382C12.0144 56.6407 13.0725 56.886 14.0831 57.2673C14.3298 57.3496 14.5914 57.3847 14.85 57.3708H18.2623C18.9133 64.9402 21.9807 72.0998 27.016 77.7898L25.6427 79.1612C25.4525 79.3512 25.2593 79.5396 25.0631 79.7284L25.0375 79.7533C24.6565 80.1234 24.2734 80.4957 23.9188 80.8864C23.8028 81.016 23.7107 81.1652 23.6453 81.3272C23.0805 82.6154 22.2661 83.7803 21.2525 84.7559C20.7234 85.2561 19.9149 85.7766 19.047 86.333C16.3986 88.0341 13.2241 90.0734 15.9825 92.9189C16.3689 93.3434 16.8475 93.6712 17.3825 93.8754C17.9175 94.0796 18.4941 94.1548 19.0648 94.0945C20.0725 93.8397 20.9583 93.2364 21.5676 92.391C22.3226 91.4277 23.0092 90.415 23.6304 89.3598C24.2962 88.2341 25.182 87.2547 26.2372 86.481C26.7812 86.0854 27.3608 85.7409 27.9671 85.4523C28.1544 85.3768 28.3387 85.2858 28.5111 85.1803C28.624 85.0834 28.731 84.9779 28.8262 84.8646L30.9098 82.7801L31.5488 82.1434C35.0711 84.9482 39.0957 87.0556 43.4057 88.353C46.0541 89.2198 48.7946 89.7839 51.5708 90.0345V92.6252C51.5321 93.3303 51.5321 94.0368 51.5708 94.7422C51.651 95.1143 51.767 95.4784 51.9126 95.8306C52.3525 97.1319 52.5041 98.5135 52.3584 99.8796C52.2515 100.591 52.0853 101.294 51.919 101.998L51.919 101.999L51.9185 102C51.6243 103.247 51.33 104.495 51.3687 105.784C51.3389 106.597 51.6183 107.39 52.1504 108.005C52.7314 108.516 53.4421 108.843 54.1947 108.956V109C54.2884 108.999 54.3817 108.995 54.4747 108.988ZM43.8693 47.7275C41.0664 44.9346 38.2664 42.1439 35.4694 39.3549C32.9191 42.7009 31.2367 46.6262 30.5739 50.7804C30.5472 50.954 30.5263 51.1279 30.5055 51.3032C30.5012 51.3407 30.4961 51.3784 30.4911 51.4163C30.4858 51.4564 30.4804 51.4967 30.4758 51.5369H42.3356C42.6328 50.1916 43.153 48.9045 43.8693 47.7275ZM51.6718 29.6975C47.2727 30.32 43.1292 32.1469 39.6991 34.9763L46.1491 41.4254L48.1674 43.4553C49.2523 42.8091 50.4294 42.3284 51.657 42.0294L51.6718 29.6975ZM51.6718 78.7585V66.421C50.5869 66.1416 49.5436 65.7151 48.5716 65.153L39.9518 73.7735C43.2303 76.3339 47.1062 78.0193 51.217 78.6714C51.3481 78.7142 51.4992 78.7305 51.6478 78.7465L51.657 78.7475L51.6718 78.7585ZM41.4736 63.3137L44.0061 60.783C43.3224 59.7067 42.7993 58.5371 42.4545 57.311H30.4223C30.99 61.6968 32.7289 65.8483 35.4605 69.3271L41.4736 63.3137ZM65.08 47.7275C67.883 44.9346 70.683 42.1439 73.48 39.3549C76.0303 42.7009 77.7126 46.6262 78.3754 50.7804C78.4022 50.954 78.423 51.1279 78.4438 51.3032C78.4456 51.3188 78.4475 51.3343 78.4495 51.35C78.4523 51.372 78.4553 51.3941 78.4582 51.4163C78.4636 51.4564 78.469 51.4967 78.4735 51.5369H66.6137C66.3165 50.1916 65.7964 48.9045 65.08 47.7275ZM57.2775 29.6975C61.6766 30.32 65.8201 32.1469 69.2503 34.9763L62.8002 41.4254L60.782 43.4553C59.697 42.8091 58.5199 42.3284 57.2924 42.0294L57.2775 29.6975ZM57.2775 78.7585V66.421C58.3624 66.1416 59.4057 65.7151 60.3777 65.153L68.9976 73.7735C65.7191 76.3339 61.8431 78.0193 57.7323 78.6714C57.6012 78.7142 57.4502 78.7305 57.3015 78.7465L57.2924 78.7475L57.2775 78.7585ZM67.4757 63.3137L64.9433 60.783C65.6269 59.7067 66.1501 58.5371 66.4949 57.311H78.5271C77.9593 61.6968 76.2205 65.8483 73.4889 69.3271L67.4757 63.3137Z" fill="#44ADCB"/>
</svg>
